<svg width="299" height="26" viewBox="0 0 299 26" fill="none" xmlns="http://www.w3.org/2000/svg">
<path d="M280.718 13.5011C280.309 13.5225 279.895 13.5372 279.494 13.5692C279.234 13.5893 279.122 13.5305 278.949 13.4998C278.891 13.4891 278.829 13.4677 278.775 13.4704C278.37 13.4917 277.965 13.5158 277.56 13.5398C277.436 13.5919 277.357 13.6614 277.167 13.6868C276.981 13.7109 276.762 13.7109 276.555 13.7229C276.283 13.7376 276.01 13.7523 275.737 13.7657C275.601 13.7723 275.489 13.7977 275.444 13.8458C275.435 13.8539 275.526 13.8739 275.576 13.8859C275.741 13.926 275.902 13.9714 276.084 14.0022C276.258 14.0316 276.473 13.9835 276.659 14.0209C277.076 14.105 277.08 14.1037 277.399 14.0877C277.672 14.073 277.944 14.057 278.217 14.0463C278.271 14.0436 278.333 14.0636 278.391 14.0743C278.564 14.1037 278.676 14.1705 278.932 14.1451C279.126 14.1251 279.341 14.1211 279.544 14.1104C279.713 14.1491 279.871 14.1932 280.052 14.224C280.222 14.2534 280.272 14.2761 280.181 14.3148C280.098 14.3509 279.982 14.3656 279.829 14.3683C279.693 14.3696 279.556 14.3816 279.42 14.3883C279.35 14.3923 279.284 14.395 279.217 14.399C278.957 14.4137 278.957 14.4137 278.482 14.3282C278.296 14.2948 278.085 14.3416 277.907 14.3095C277.787 14.2881 277.684 14.2561 277.568 14.2333C277.519 14.224 277.44 14.2226 277.378 14.2253C277.171 14.2347 276.965 14.2413 276.766 14.2587C276.626 14.2707 276.543 14.3082 276.56 14.3456C276.564 14.3603 276.663 14.3817 276.721 14.383C276.853 14.3857 276.994 14.367 277.122 14.3763C277.246 14.3857 277.374 14.4124 277.465 14.4418C277.651 14.5032 277.862 14.4485 278.039 14.4645C278.225 14.4819 278.378 14.5353 278.556 14.5674C278.601 14.5754 278.688 14.562 278.759 14.558C278.961 14.5487 279.164 14.5407 279.366 14.5313C279.536 14.5701 279.718 14.6048 279.871 14.6489C280.147 14.7291 280.445 14.7598 280.805 14.721C281.007 14.6997 281.206 14.7077 281.367 14.7598C281.532 14.8132 281.722 14.8079 281.933 14.7972C282.127 14.7865 282.326 14.7571 282.524 14.7945C282.954 14.8774 282.958 14.8814 283.467 14.8493C283.62 14.84 283.735 14.8373 283.851 14.868C283.959 14.8961 284.074 14.9201 284.186 14.9469C284.389 14.9375 284.595 14.9282 284.798 14.9175C285.058 14.9028 285.203 14.9215 285.265 14.9963C285.302 15.0417 285.319 15.0832 285.409 15.1139C285.517 15.1513 285.633 15.15 285.79 15.1393C285.939 15.1299 286.046 15.1152 286.108 15.0671C286.133 15.0471 286.182 15.0284 286.228 15.0123C286.265 15.0003 286.323 14.9816 286.356 14.9843C286.418 14.9896 286.501 15.0043 286.521 15.0217C286.724 15.1834 286.724 15.1847 286.931 15.2315C287.158 15.2836 287.394 15.3303 287.6 15.3891C287.786 15.4413 287.972 15.4186 288.175 15.4186C288.328 15.4186 288.427 15.4533 288.415 15.488C288.406 15.5081 288.348 15.5375 288.299 15.5401C287.894 15.5669 287.485 15.5896 287.075 15.6083C287.026 15.611 286.964 15.5869 286.906 15.5749C286.79 15.5508 286.687 15.5134 286.563 15.5054C286.439 15.4974 286.294 15.5174 286.158 15.5241C286.021 15.5308 285.877 15.5482 285.753 15.5375C285.629 15.5268 285.529 15.488 285.414 15.4626C285.36 15.4506 285.285 15.4333 285.24 15.4373C284.938 15.4693 284.715 15.4252 284.5 15.3664C284.455 15.3544 284.376 15.3464 284.318 15.3491C283.839 15.3718 283.363 15.3985 282.884 15.4239C282.69 15.4346 282.533 15.3878 282.491 15.309C282.47 15.2649 282.429 15.2208 282.429 15.1767C282.429 15.0965 282.202 15.0524 282.037 15.0618C281.764 15.0751 281.487 15.0858 281.218 15.1059C280.999 15.1219 280.813 15.1059 280.664 15.0578C280.491 15.003 280.292 15.0137 280.094 15.0284C279.945 15.0391 279.904 15.0832 279.912 15.1941C279.92 15.2836 279.85 15.3116 279.581 15.3263C279.242 15.3451 278.899 15.3638 278.556 15.3785C278.502 15.3811 278.44 15.3584 278.387 15.3464C278.271 15.3223 278.167 15.2836 278.043 15.2756C277.919 15.2662 277.775 15.2863 277.638 15.2943C277.502 15.301 277.357 15.3197 277.233 15.3103C277.109 15.301 277.006 15.2609 276.894 15.2355C276.841 15.2235 276.774 15.2061 276.721 15.2088C276.448 15.2194 276.175 15.2355 275.902 15.2502C275.596 15.2662 275.596 15.2662 275.162 15.1834C274.964 15.146 274.766 15.1754 274.571 15.1861C274.365 15.1967 274.17 15.2021 274.009 15.1486C273.902 15.1139 273.782 15.0925 273.654 15.0992C273.311 15.1152 272.972 15.1353 272.629 15.1513C272.571 15.154 272.492 15.1473 272.447 15.1353C272.228 15.0792 272.013 15.0351 271.707 15.0631C271.442 15.0872 271.157 15.0885 270.892 15.1112C270.748 15.1232 270.682 15.166 270.711 15.1994C270.727 15.2168 270.814 15.2368 270.872 15.2368C271.004 15.2382 271.149 15.2181 271.273 15.2261C271.529 15.2422 271.657 15.3544 271.992 15.3237C272.19 15.305 272.397 15.2983 272.604 15.2929C272.657 15.2916 272.715 15.317 272.773 15.3304C272.939 15.3664 273.083 15.4132 273.323 15.3891C273.521 15.3704 273.732 15.3651 273.935 15.3544C274.257 15.337 274.257 15.3384 274.675 15.4199C274.873 15.4586 275.071 15.4279 275.266 15.4186C275.41 15.4119 275.547 15.3985 275.663 15.4172C275.84 15.4453 275.968 15.5094 276.188 15.5054C276.394 15.5014 276.597 15.4827 276.803 15.476C276.932 15.472 277.051 15.4934 277.155 15.5295C277.262 15.5655 277.378 15.5816 277.518 15.5735C277.721 15.5628 277.928 15.5495 278.134 15.5428C278.192 15.5415 278.258 15.5535 278.312 15.5642C278.428 15.5882 278.539 15.6163 278.651 15.6417C278.854 15.6337 279.06 15.631 279.259 15.615C279.412 15.6029 279.519 15.6083 279.643 15.635C279.8 15.6711 279.928 15.7352 280.185 15.7045C280.313 15.6898 280.462 15.6938 280.59 15.6804C280.747 15.6631 280.854 15.6697 280.966 15.7098C281.177 15.786 281.441 15.7873 281.714 15.7579C282.012 15.7259 282.235 15.7633 282.458 15.8221C282.694 15.8836 282.694 15.8822 282.876 16.0305C282.929 16.0733 283.082 16.0933 283.21 16.0853C283.425 16.072 283.611 16.0786 283.768 16.1294C283.934 16.1842 284.132 16.1775 284.335 16.1628C284.603 16.1428 284.872 16.1254 285.091 16.2029C285.199 16.2403 285.314 16.2497 285.459 16.2403C285.868 16.2163 286.282 16.2016 286.683 16.1722C286.927 16.1535 287.067 16.1962 287.232 16.2323C287.456 16.2817 287.699 16.3258 287.699 16.4314C287.699 16.4488 287.757 16.4688 287.807 16.4822C287.914 16.5102 288.03 16.5343 288.142 16.561C288.307 16.6011 288.468 16.6345 288.696 16.6131C288.894 16.5957 289.105 16.5904 289.307 16.5784C289.51 16.5663 289.696 16.5597 289.878 16.6104C290.089 16.6679 290.312 16.7227 290.552 16.7654C290.721 16.7962 290.944 16.7441 291.126 16.7855C291.238 16.8109 291.345 16.8403 291.465 16.8616C291.515 16.871 291.593 16.8643 291.659 16.8616C291.796 16.8563 291.936 16.8523 292.069 16.8389C292.222 16.8242 292.337 16.8269 292.453 16.8576C292.561 16.8857 292.668 16.9244 292.792 16.9325C292.978 16.9445 293.185 16.891 293.371 16.9525C293.466 16.9832 293.586 17.0126 293.71 17.022C293.834 17.0314 293.978 17.0113 294.111 17.0126C294.168 17.0126 294.239 17.034 294.272 17.0514C294.292 17.0607 294.264 17.0861 294.235 17.0995C294.197 17.1155 294.144 17.1369 294.09 17.1396C293.681 17.1636 293.272 17.1837 292.862 17.2064C292.618 17.2198 292.618 17.2198 292.126 17.1356C292.011 17.1155 291.883 17.1195 291.738 17.1289C291.544 17.1409 291.345 17.1636 291.143 17.1396C290.878 17.0487 290.552 17.0407 290.204 17.0754C290.06 17.0901 289.927 17.0901 289.82 17.0648C289.593 17.014 289.353 16.9672 289.15 16.9071C288.993 16.8603 288.919 16.8563 288.853 16.9204C288.832 16.9405 288.811 16.9619 288.816 16.9806C288.84 17.0474 288.886 17.1129 288.911 17.1797C288.919 17.1984 288.886 17.2198 288.865 17.2398C288.799 17.2959 288.712 17.2919 288.568 17.2451C288.423 17.1984 288.249 17.1676 288.018 17.189C287.819 17.2077 287.604 17.2051 287.406 17.2251C287.1 17.2545 286.885 17.2117 286.666 17.1543C286.621 17.1423 286.542 17.1356 286.484 17.1382C285.868 17.169 285.257 17.2037 284.641 17.2345C284.508 17.2411 284.388 17.2211 284.285 17.185C284.178 17.1489 284.058 17.1302 283.926 17.1369C283.38 17.165 282.834 17.1904 282.289 17.2251C282.065 17.2398 281.888 17.2224 281.735 17.1756C281.619 17.1409 281.512 17.1302 281.367 17.1342C281.21 17.1382 281.098 17.1516 281.02 17.1904C280.945 17.2278 280.999 17.2505 281.164 17.2799C281.342 17.3119 281.507 17.3534 281.677 17.3908C281.813 17.3854 281.95 17.3747 282.082 17.3761C282.14 17.3761 282.194 17.4001 282.251 17.4135C282.417 17.4522 282.57 17.491 282.805 17.4696C283.004 17.4509 283.215 17.4469 283.417 17.4349C283.698 17.4202 283.698 17.4202 284.153 17.5044C284.269 17.5257 284.393 17.5244 284.541 17.5124C284.67 17.503 284.802 17.5217 284.893 17.5618C284.93 17.5779 284.918 17.6046 284.839 17.6928C284.839 17.7583 284.926 17.7288 284.955 17.6861C285 17.6246 284.913 17.6046 284.748 17.638C284.632 17.662 284.575 17.6968 284.603 17.7248C284.62 17.7395 284.699 17.7583 284.839 17.6928C285.203 17.6126 285.48 17.6032 285.744 17.5819C285.901 17.5698 286.001 17.5752 286.125 17.6099C286.273 17.6513 286.422 17.6954 286.666 17.6741C286.931 17.65 287.212 17.6473 287.48 17.6273C287.728 17.6086 287.857 17.6674 288.014 17.7021C288.204 17.7435 288.415 17.6968 288.588 17.7208C288.77 17.7449 288.898 17.8037 289.109 17.8144C289.415 17.7783 289.609 17.8451 289.841 17.8892C290.023 17.9226 290.237 17.8932 290.432 17.8785C290.651 17.8625 290.833 17.8772 290.986 17.9253C291.159 17.9801 291.354 17.968 291.552 17.956C292.015 17.9293 292.031 17.9253 292.3 17.9988C292.494 18.0522 292.68 18.0282 292.875 18.0215C293.044 18.0576 293.21 18.0963 293.387 18.1284C293.433 18.1364 293.52 18.123 293.59 18.119C293.792 18.1083 293.999 18.0976 294.202 18.087C294.338 18.0803 294.483 18.0602 294.607 18.0682C294.731 18.0776 294.834 18.1164 294.946 18.1417C295.057 18.1671 295.173 18.1925 295.28 18.2192C295.446 18.2593 295.603 18.2927 295.834 18.2727C296.033 18.2553 296.239 18.25 296.446 18.2379C296.706 18.2232 296.698 18.2273 297.182 18.3074C297.442 18.3515 297.711 18.2981 297.975 18.2927C298.108 18.2901 298.236 18.3048 298.327 18.3435C298.364 18.3595 298.352 18.3863 298.364 18.409C297.682 18.4451 296.996 18.4758 296.322 18.5199C296.062 18.5373 295.925 18.4891 295.785 18.4491C295.553 18.3849 295.247 18.4785 295.028 18.3956C294.896 18.3462 294.706 18.3181 294.478 18.3422C294.346 18.3555 294.206 18.3542 294.069 18.3662C293.722 18.3956 293.404 18.397 293.127 18.3048C293.032 18.2727 292.895 18.2553 292.796 18.2246C292.68 18.1912 292.569 18.1725 292.432 18.1791C291.816 18.2112 291.205 18.2433 290.593 18.278C290.539 18.2807 290.485 18.3007 290.44 18.3154C290.324 18.3529 290.361 18.3823 290.547 18.4063C290.609 18.4143 290.659 18.4317 290.717 18.445C290.829 18.4704 290.932 18.5105 291.056 18.5199C291.18 18.5292 291.325 18.5105 291.461 18.5038C291.597 18.4972 291.742 18.4771 291.866 18.4851C291.99 18.4945 292.093 18.5332 292.209 18.5573C292.263 18.5693 292.329 18.5894 292.383 18.588C292.656 18.58 292.924 18.5653 293.197 18.5533C293.367 18.5894 293.511 18.6415 293.714 18.6535C293.842 18.6615 293.978 18.6468 294.111 18.6495C294.168 18.6508 294.243 18.6709 294.272 18.6882C294.288 18.6989 294.235 18.7257 294.193 18.739C294.036 18.7898 293.821 18.7804 293.627 18.7965C293.416 18.8138 293.226 18.8085 293.065 18.7564C292.957 18.7217 292.837 18.7029 292.705 18.7096C292.362 18.727 292.023 18.747 291.68 18.7617C291.622 18.7644 291.552 18.7524 291.498 18.743C291.064 18.6615 291.064 18.6589 290.758 18.6762C290.308 18.7016 290.308 18.7016 290.006 18.6308C289.948 18.6174 289.886 18.592 289.836 18.5934C289.357 18.6148 288.882 18.6361 288.406 18.6669C288.249 18.6762 288.142 18.6762 288.026 18.6415C287.927 18.6121 287.811 18.5787 287.687 18.5707C287.559 18.5626 287.418 18.5827 287.282 18.5894C287.146 18.596 287.001 18.6134 286.881 18.6027C286.757 18.592 286.65 18.5546 286.542 18.5279C286.43 18.4998 286.311 18.5012 286.158 18.5119C285.686 18.5426 285.682 18.5386 285.215 18.4557C285.161 18.4464 285.091 18.4357 285.033 18.4384C284.69 18.4544 284.351 18.4745 284.008 18.4905C283.876 18.4972 283.748 18.4798 283.657 18.441C283.62 18.425 283.632 18.3983 283.607 18.3462C283.578 18.3341 283.611 18.3555 283.62 18.3756C283.682 18.3729 283.756 18.3756 283.802 18.3649C283.917 18.3395 283.975 18.3061 283.946 18.278C283.93 18.2633 283.851 18.2446 283.802 18.2446C283.711 18.2446 283.632 18.274 283.607 18.3462C283.347 18.3903 283.07 18.3996 282.801 18.421C282.644 18.4344 282.545 18.4277 282.421 18.3929C282.272 18.3502 282.119 18.3088 281.875 18.3301C281.611 18.3542 281.33 18.3582 281.057 18.3769C280.743 18.3983 280.606 18.278 280.342 18.2807C280.069 18.2834 279.796 18.3061 279.523 18.3221C279.284 18.3355 279.284 18.3355 278.788 18.2486C278.606 18.2166 278.391 18.2633 278.213 18.2299C278.093 18.2085 277.99 18.1765 277.874 18.1538C277.824 18.1444 277.746 18.1444 277.684 18.1471C277.341 18.1631 276.994 18.1738 276.663 18.2032C276.287 18.2379 276.002 18.2005 275.733 18.1217C275.394 18.1364 275.051 18.1444 274.716 18.1698C274.472 18.1885 274.332 18.1444 274.166 18.1083C274.108 18.0963 274.059 18.0763 273.997 18.0709C273.935 18.0656 273.86 18.0763 273.794 18.0803C273.521 18.095 273.24 18.1017 272.976 18.1257C272.649 18.1564 272.525 18.0469 272.273 18.0335C272.104 18.099 272.013 18.1885 271.678 18.1952C271.405 18.2005 271.132 18.2219 270.859 18.2366C270.723 18.2433 270.587 18.2513 270.45 18.258C270.231 18.27 270.128 18.3221 270.173 18.4023C270.198 18.4464 270.219 18.4905 270.239 18.5346C270.281 18.6134 270.177 18.6802 270.004 18.6896C269.524 18.715 269.049 18.7417 268.569 18.7644C268.441 18.7711 268.317 18.7484 268.214 18.7123C268.106 18.6762 267.987 18.6602 267.854 18.6669C267.375 18.6922 266.899 18.719 266.42 18.7417C266.366 18.7444 266.296 18.731 266.242 18.7203C266.126 18.6963 266.015 18.6682 265.903 18.6428C265.63 18.6548 265.362 18.6628 265.093 18.6789C264.659 18.7029 264.659 18.7043 264.341 18.6308C264.283 18.6174 264.225 18.592 264.171 18.5934C263.965 18.5987 263.762 18.6121 263.555 18.6241C262.948 18.6589 262.948 18.6588 262.77 18.6188C262.609 18.5813 262.464 18.5359 262.22 18.5573C261.956 18.5814 261.675 18.5894 261.402 18.6027C261.199 18.6121 260.997 18.6228 260.794 18.6254C260.74 18.6268 260.683 18.6014 260.625 18.588C260.459 18.5466 260.298 18.5132 260.071 18.5359C259.939 18.5493 259.798 18.552 259.662 18.5586C259.306 18.5773 259.306 18.5773 258.723 18.4972C258.665 18.4891 258.595 18.4798 258.537 18.4838C258.058 18.5079 257.582 18.5346 257.103 18.5573C257.045 18.56 256.975 18.5519 256.917 18.5453C256.264 18.4678 256.264 18.4678 255.569 18.5052C255.305 18.5185 255.297 18.5239 255.02 18.4531C254.896 18.4223 254.792 18.4076 254.648 18.417C254.102 18.4491 253.552 18.4704 253.011 18.5079C252.767 18.5239 252.626 18.4838 252.461 18.4477C252.403 18.4357 252.341 18.409 252.292 18.4103C251.746 18.4357 251.2 18.4664 250.655 18.4918C250.605 18.4945 250.543 18.4678 250.485 18.4557C250.373 18.4317 250.266 18.3956 250.142 18.3876C250.014 18.3796 249.873 18.3996 249.733 18.4063C249.39 18.4237 249.39 18.4223 248.993 18.3435C248.939 18.3328 248.869 18.3181 248.815 18.3208C248.269 18.3475 247.72 18.3702 247.178 18.409C246.868 18.4304 246.657 18.3916 246.438 18.3355C246.393 18.3235 246.314 18.3181 246.256 18.3208C245.641 18.3515 245.029 18.3863 244.413 18.417C244.285 18.4237 244.161 18.401 244.057 18.3662C243.892 18.3114 243.698 18.3181 243.491 18.3301C243.016 18.3582 243.012 18.3569 242.731 18.2927C242.673 18.2794 242.623 18.262 242.561 18.2553C242.503 18.2486 242.429 18.2526 242.367 18.2553C242.094 18.2687 241.821 18.2834 241.548 18.2981C241.276 18.3128 240.999 18.3208 240.73 18.3435C240.399 18.3716 240.242 18.2847 240.011 18.2446C239.672 18.262 239.324 18.2727 238.99 18.3007C238.733 18.3221 238.614 18.2633 238.444 18.2326C238.386 18.2219 238.324 18.1992 238.27 18.2019C237.655 18.2313 237.039 18.2633 236.427 18.2994C236.278 18.3074 236.179 18.2967 236.055 18.2647C235.778 18.1925 235.766 18.1952 235.303 18.2219C235.1 18.2339 234.906 18.2446 234.732 18.1898C234.579 18.1404 234.393 18.1284 234.174 18.1444C233.905 18.1644 233.628 18.1751 233.356 18.1885C233.083 18.2032 232.81 18.2232 232.537 18.2299C232.318 18.2366 232.186 18.1738 232.012 18.1417C231.959 18.1324 231.884 18.131 231.822 18.1337C231.549 18.1457 231.268 18.1551 231.004 18.1778C230.681 18.2059 230.504 18.1324 230.276 18.0896C230.227 18.0803 230.144 18.0856 230.082 18.0896C229.602 18.1137 229.127 18.1404 228.647 18.1658C228.478 18.1297 228.304 18.095 228.135 18.0589C227.862 18.0723 227.589 18.0869 227.316 18.1003C227.11 18.111 226.899 18.115 226.705 18.1351C226.453 18.1618 226.329 18.099 226.159 18.0682C226.101 18.0576 226.039 18.0348 225.986 18.0375C225.642 18.0522 225.299 18.0682 224.96 18.091C224.638 18.1137 224.51 17.9934 224.245 17.9947C223.972 17.9961 223.691 18.0135 223.427 18.0375C223.121 18.0656 222.906 18.0228 222.687 17.9654C222.641 17.9533 222.563 17.9466 222.505 17.9493C222.162 17.9654 221.823 17.9854 221.48 18.0014C221.422 18.0041 221.352 17.9974 221.294 17.9894C220.641 17.9106 220.641 17.9092 220.356 17.9253C220.153 17.936 219.946 17.9493 219.74 17.956C219.682 17.9587 219.612 17.9466 219.558 17.936C219.128 17.8545 219.128 17.8531 218.818 17.8692C218.545 17.8838 218.272 17.8985 217.999 17.9132C217.83 17.8772 217.656 17.8424 217.487 17.8064C217.148 17.8237 216.801 17.8371 216.466 17.8611C216.309 17.8718 216.206 17.8678 216.086 17.8344C215.937 17.7943 215.788 17.7476 215.54 17.7703C215.275 17.7943 214.994 17.797 214.726 17.817C214.403 17.8411 214.271 17.7195 214.011 17.7208C213.738 17.7222 213.457 17.7395 213.192 17.7636C212.886 17.7916 212.671 17.7489 212.452 17.6914C212.407 17.6794 212.328 17.6727 212.27 17.6754C211.518 17.7142 210.77 17.7529 210.018 17.7943C209.555 17.8197 209.555 17.821 208.674 17.7476C208.612 17.7422 208.546 17.7369 208.484 17.7395C208.211 17.7516 207.93 17.7609 207.666 17.7836C207.343 17.8117 207.165 17.7395 206.938 17.6954C206.888 17.6861 206.81 17.6914 206.744 17.6941C206.537 17.7035 206.335 17.7155 206.128 17.7262C205.855 17.7409 205.582 17.7556 205.309 17.7703C205.14 17.7355 204.966 17.6994 204.797 17.6647C204.458 17.6821 204.111 17.6914 203.776 17.7195C203.52 17.7409 203.4 17.6848 203.23 17.6527C203.172 17.642 203.11 17.6193 203.057 17.6206C202.441 17.65 201.825 17.6807 201.213 17.7182C200.961 17.7342 200.845 17.6741 200.676 17.6433C200.618 17.634 200.552 17.6166 200.498 17.6193C200.089 17.638 199.68 17.6607 199.27 17.6834C199.039 17.6968 199.039 17.6968 198.535 17.6139C198.477 17.6046 198.411 17.5952 198.353 17.5979C197.055 17.6647 195.761 17.7355 194.463 17.8023C194.331 17.809 194.211 17.789 194.108 17.7529C194 17.7168 193.88 17.6981 193.748 17.7048C193.202 17.7329 192.653 17.7583 192.111 17.793C191.888 17.8077 191.71 17.7903 191.557 17.7435C191.441 17.7088 191.334 17.6954 191.189 17.7035C190.916 17.7195 190.644 17.7329 190.371 17.7476C190.098 17.7622 189.825 17.777 189.552 17.7917C189.28 17.8064 189.003 17.8144 188.734 17.8371C188.403 17.8651 188.242 17.7823 188.015 17.7409C187.606 17.7609 187.196 17.781 186.791 17.8023C186.245 17.8304 185.7 17.8611 185.154 17.8879C185.105 17.8905 185.043 17.8665 184.985 17.8545C184.815 17.821 184.691 17.7743 184.439 17.789C183.216 17.8598 181.984 17.9199 180.756 17.9894C180.5 18.0041 180.388 17.9466 180.215 17.9159C180.157 17.9066 180.091 17.8879 180.037 17.8905C179.355 17.9239 178.673 17.9613 177.991 17.9974C177.714 18.0121 177.714 18.0121 177.251 17.9293C177.197 17.9199 177.127 17.9079 177.069 17.9106C176.18 17.956 175.296 18.0041 174.407 18.0509C174.275 18.0576 174.155 18.0388 174.047 18.0028C173.944 17.9667 173.82 17.9467 173.692 17.9533C172.873 17.9961 172.051 18.0375 171.237 18.0843C171.018 18.0976 170.836 18.0856 170.679 18.0375C170.567 18.0028 170.455 17.9881 170.315 17.9961C169.087 18.0616 167.859 18.1244 166.632 18.1939C166.396 18.2072 166.231 18.1818 166.082 18.1377C165.962 18.103 165.859 18.0963 165.71 18.1016C165.553 18.1083 165.458 18.123 165.371 18.1631C165.26 18.2152 165.189 18.2807 164.925 18.2847C164.652 18.2887 164.375 18.3048 164.106 18.3275C163.85 18.3502 163.73 18.2901 163.569 18.254C163.449 18.2286 163.337 18.2246 163.184 18.2366C163.044 18.2473 162.957 18.27 162.874 18.3128C162.693 18.4036 162.676 18.4036 162.453 18.3462C162.333 18.3154 162.225 18.2914 162.093 18.2967C161.548 18.3235 161.002 18.3529 160.456 18.3836C160.142 18.401 160.138 18.4036 159.902 18.3368C159.787 18.3034 159.675 18.2874 159.539 18.2954C158.038 18.3756 156.538 18.4531 155.037 18.5373C154.806 18.5506 154.649 18.5226 154.483 18.4825C154.43 18.4691 154.376 18.4504 154.314 18.445C154.252 18.4397 154.182 18.445 154.115 18.4477C153.024 18.5052 151.929 18.56 150.842 18.6241C150.594 18.6388 150.461 18.5961 150.292 18.5613C150.234 18.5493 150.184 18.5306 150.122 18.5252C150.06 18.5212 149.986 18.5306 149.92 18.5346C148.829 18.592 147.733 18.6468 146.646 18.711C146.386 18.7257 146.274 18.6695 146.105 18.6401C146.047 18.6295 145.985 18.6094 145.931 18.6121C145.588 18.6268 145.249 18.6468 144.906 18.6642C144.087 18.7083 143.269 18.7497 142.45 18.7951C142.136 18.8125 142 18.6936 141.735 18.6989C141.392 18.7056 141.053 18.7323 140.71 18.751C140.437 18.7657 140.165 18.7791 139.892 18.7951C139.623 18.8098 139.623 18.8098 138.954 18.7323C138.896 18.7257 138.825 18.7163 138.768 18.719C137.813 18.7684 136.854 18.8179 135.903 18.8713C135.684 18.8833 135.502 18.8767 135.345 18.8272C135.233 18.7925 135.118 18.7751 134.981 18.7831C133.547 18.8593 132.117 18.9354 130.682 19.0103C130.629 19.0129 130.558 18.9996 130.505 18.9889C130.389 18.9648 130.277 18.9368 130.166 18.9114C130.083 18.9421 129.975 18.9702 129.922 19.0049C129.847 19.0517 129.748 19.0651 129.591 19.0731C129.434 19.0811 129.335 19.0784 129.211 19.0437C129.062 19.0009 128.909 18.9675 128.665 18.9809C127.165 19.065 125.664 19.1412 124.164 19.2241C123.916 19.2374 123.8 19.1786 123.626 19.1479C123.568 19.1385 123.502 19.1239 123.449 19.1265C122.833 19.1573 122.221 19.1907 121.605 19.2227C119.898 19.3136 118.191 19.4004 116.488 19.4967C116.178 19.514 115.967 19.4806 115.748 19.4232C115.702 19.4111 115.624 19.4045 115.566 19.4071C113.177 19.5327 110.788 19.6597 108.402 19.7866C108.274 19.7933 108.15 19.7719 108.047 19.7372C107.939 19.7011 107.82 19.6837 107.687 19.6904C106.596 19.7479 105.505 19.8053 104.414 19.8641C104.141 19.8788 104.137 19.8801 103.856 19.816C103.798 19.8026 103.736 19.7773 103.69 19.7799C103.595 19.7866 103.504 19.82 103.438 19.8654C103.372 19.9135 103.269 19.9269 103.116 19.9363C102.959 19.9456 102.855 19.9416 102.735 19.9095C102.582 19.8695 102.442 19.8307 102.194 19.8441C99.0565 20.0151 95.9191 20.1794 92.7817 20.3491C92.5296 20.3625 92.4138 20.3064 92.2402 20.2757C92.1823 20.2663 92.1245 20.2529 92.0625 20.2503C91.9964 20.2476 91.9261 20.2556 91.86 20.2596C86.7426 20.5309 81.6253 20.8035 76.508 21.0747C76.2021 21.0907 76.2062 21.0907 75.8714 21.2137C75.8301 21.2284 75.7763 21.2484 75.7184 21.2511C74.1518 21.3366 72.5811 21.4194 71.0103 21.5023C70.3283 21.5384 69.6463 21.5758 68.9642 21.6105C68.7204 21.6226 68.7204 21.6226 68.1375 21.7669C68.0879 21.7789 68.03 21.7949 67.9721 21.7976C65.244 21.9432 62.5158 22.0889 59.7835 22.2319C59.5686 22.2426 59.395 22.2666 59.2958 22.3307C59.2255 22.3762 59.1346 22.4029 58.9982 22.4109C57.0885 22.5125 55.1789 22.6154 53.265 22.7142C53.0377 22.7263 52.9012 22.7637 52.7896 22.8198C52.7524 22.8385 52.7193 22.8599 52.6656 22.8732C52.616 22.8853 52.5416 22.8893 52.4796 22.8933C50.8427 22.9801 49.2059 23.0697 47.5648 23.1525C47.321 23.1645 47.2217 23.214 47.1018 23.2661C47.0605 23.2835 47.0315 23.3075 46.9778 23.3195C46.9241 23.3302 46.8455 23.3302 46.7794 23.3329C45.4153 23.4051 44.0513 23.4785 42.6872 23.5507C42.4227 23.544 42.3648 23.6215 42.2366 23.6683C42.1912 23.6843 42.1582 23.7057 42.1044 23.7164C42.0466 23.7271 41.9721 23.7257 41.9018 23.7284C40.8105 23.7859 39.7193 23.8473 38.6239 23.9008C38.3718 23.9128 38.3221 23.981 38.1857 24.0277C38.1403 24.0424 38.0948 24.0651 38.0411 24.0692C37.3591 24.1079 36.6771 24.144 35.995 24.1787C35.7677 24.1907 35.7677 24.1894 35.3667 24.3217C35.3212 24.3364 35.2675 24.3524 35.2096 24.3564C34.1886 24.4126 33.1635 24.466 32.1384 24.5208C32.0061 24.5275 31.9152 24.5595 31.8491 24.605C31.7829 24.6504 31.6879 24.6798 31.5556 24.6865C30.7371 24.7306 29.9186 24.776 29.1002 24.8161C28.8728 24.8268 28.7241 24.8602 28.6249 24.9203C28.5505 24.9657 28.4595 24.9885 28.3148 24.9965C27.4964 25.0392 26.678 25.086 25.8554 25.1234C25.6157 25.1341 25.4916 25.1795 25.3924 25.2357C25.3139 25.2811 25.2229 25.2971 25.07 25.3051C23.5695 25.3826 22.0649 25.4601 20.5686 25.5457C20.3164 25.5603 20.1883 25.5136 20.0229 25.4802C19.7873 25.4334 19.5683 25.3826 19.5683 25.2784C19.5683 25.2624 19.498 25.2437 19.4484 25.2303C19.0805 25.1301 19.0805 25.1301 19.0226 25.0232C18.9896 24.9577 18.9524 24.8909 18.9234 24.8241C18.8697 24.7145 18.7374 24.6865 18.3571 24.7065C18.2207 24.7132 18.0843 24.7225 17.9479 24.7279C17.7453 24.7372 17.5924 24.6932 17.5552 24.613C17.5345 24.5689 17.5098 24.5248 17.4891 24.4807C17.6958 24.47 17.6916 24.4687 18.0553 24.307C18.2083 24.2389 18.2083 24.2389 17.9149 24.1707C17.8033 24.1453 17.6958 24.1172 17.5759 24.0932C17.5221 24.0825 17.4519 24.0758 17.394 24.0785C17.0509 24.0945 16.712 24.1132 16.3731 24.132C15.8274 24.1613 15.8274 24.1613 15.2735 24.025C15.228 24.0144 15.1577 23.9943 15.166 23.9836C15.2115 23.9342 15.323 23.9128 15.4636 23.9075C15.6703 23.8994 15.8728 23.8861 16.0753 23.8754C16.2118 23.8687 16.3482 23.8607 16.4846 23.854C16.6127 23.8032 16.745 23.7538 16.8649 23.7017C17.0551 23.6215 17.055 23.6188 16.7946 23.5627C16.6292 23.5253 16.4515 23.4919 16.282 23.4572C16.0795 23.4678 15.8728 23.4799 15.6703 23.4892C15.414 23.5013 15.3106 23.4759 15.2445 23.389C15.1866 23.3128 15.2569 23.2474 15.4553 23.2313C15.6579 23.2153 15.8481 23.2046 15.9514 23.1365C16.0506 23.071 16.2242 23.0456 16.4392 23.0403C16.5756 23.0363 16.712 23.0269 16.8484 23.0189C17.0261 23.0082 17.1212 22.9401 17.084 22.8639C17.0633 22.8145 17.022 22.773 16.8608 22.7623C16.1457 22.7156 16.1374 22.7169 15.7819 22.626C15.7488 22.618 15.7241 22.594 15.7365 22.582C15.7571 22.5619 15.8026 22.5325 15.8522 22.5285C16.3276 22.4991 16.8029 22.4724 17.2783 22.4523C17.4354 22.4457 17.5511 22.4363 17.6048 22.3869C17.6792 22.3187 17.6462 22.2559 17.5015 22.2091C17.456 22.1944 17.3816 22.1757 17.332 22.1771C16.7863 22.2011 16.2449 22.2319 15.6992 22.2559C15.6496 22.2586 15.5587 22.2359 15.5381 22.2185C15.4967 22.1864 15.5587 22.1437 15.7034 22.129C15.8935 22.1089 16.0878 22.1076 16.2159 22.0408C16.3937 21.9459 16.6127 21.8591 16.8111 21.7682C16.8442 21.7522 16.898 21.7214 16.8856 21.7188C16.7823 21.6894 16.6624 21.6666 16.5549 21.6386C16.373 21.5918 16.373 21.5264 16.4143 21.4635C16.4474 21.4128 16.5714 21.3927 16.7243 21.3927C16.7905 21.3927 16.8731 21.3927 16.9269 21.3807C17.0674 21.3513 17.1129 21.3139 17.0426 21.2858C17.0013 21.2698 16.9269 21.2471 16.8773 21.2498C15.9928 21.2939 15.104 21.3366 14.2235 21.3914C13.9631 21.4074 13.8433 21.3566 13.6862 21.3206C13.5664 21.2925 13.4547 21.2818 13.3059 21.3019C13.1653 21.3206 13.029 21.3099 12.9422 21.2658C12.8719 21.2297 12.9959 21.199 13.3307 21.1642C13.3927 21.1576 13.463 21.1535 13.5084 21.1402C13.9879 20.9959 13.9879 20.9945 14.3186 20.9758C14.641 20.9585 14.6411 20.9571 14.8106 20.8796C14.8891 20.8435 14.9758 20.8075 15.0502 20.7701C15.0792 20.7554 15.1288 20.7286 15.1123 20.7206C15.0214 20.6792 14.8973 20.6698 14.7526 20.6792C14.4302 20.7019 14.05 20.6832 13.8805 20.8101C13.8144 20.8582 13.711 20.8716 13.5622 20.8796C12.0659 20.9571 10.5695 21.04 9.06899 21.1148C8.82511 21.1268 8.71357 21.1763 8.6185 21.2311C8.53583 21.2765 8.44487 21.2898 8.2878 21.2979C8.13072 21.3059 8.00665 21.3099 7.91572 21.2658C7.86198 21.2391 7.90746 21.2017 8.03147 21.1642C8.20921 21.1108 8.17612 21.044 8.11826 20.9812C8.07692 20.9398 7.94878 20.9104 7.81238 20.913C7.60983 20.9184 7.41561 20.9331 7.24613 20.8796C7.14693 20.8489 7.0229 20.8275 6.91129 20.8008C6.69634 20.746 6.48139 20.6899 6.17964 20.726C5.97297 20.7126 5.82829 20.6645 5.66295 20.6271C5.386 20.5656 5.3612 20.5563 5.55961 20.4908C5.78282 20.4173 5.60918 20.3211 5.73319 20.2489C5.86546 20.1714 6.0474 20.1033 6.20861 20.0311C6.24994 20.0124 6.28716 19.9951 6.3285 19.9764C6.23342 19.9496 6.14664 19.9162 6.03503 19.8975C5.89035 19.8735 5.81595 19.8441 5.82421 19.7612C5.79528 19.7492 5.80759 19.7799 5.84066 19.7879C5.87786 19.796 5.96887 19.7893 6.01434 19.7799C6.13008 19.7545 6.18789 19.7211 6.15895 19.6931C6.14242 19.6784 6.06394 19.6597 6.01434 19.6597C5.9234 19.6597 5.84488 19.6891 5.82008 19.7612C5.35712 19.816 4.87755 19.8427 4.39806 19.8641C4.34845 19.8668 4.28649 19.8401 4.22862 19.8267C4.03847 19.7813 4.03845 19.7826 3.48042 19.7692C3.42255 19.7679 3.34405 19.7492 3.31512 19.7305C3.19525 19.649 3.19941 19.5595 3.14154 19.4726C3.24901 19.4165 3.3564 19.3617 3.46801 19.3069C3.69122 19.196 3.98063 19.0985 4.15424 18.9769C4.11704 18.9114 4.06743 18.8459 4.24931 18.7925C4.766 18.7257 4.7619 18.7257 4.90244 18.6615C5.30339 18.4798 5.70019 18.2967 6.11768 18.1177C6.22929 18.0709 6.2293 18.0455 6.03089 18.0255C5.96889 18.0201 5.90266 18.0188 5.83653 18.0215C5.62985 18.0308 5.42317 18.0549 5.22063 18.0495C5.01809 18.0455 4.86928 17.9867 4.70394 17.9507C4.53446 17.9132 4.36499 17.8745 4.19552 17.8357C4.00124 17.8398 3.807 17.8772 3.61272 17.817C3.46391 17.7703 3.27792 17.7369 3.10844 17.6981C3.23658 17.5966 3.47636 17.5191 3.66237 17.4295C3.83185 17.348 3.83589 17.3494 4.29058 17.2866C4.50553 17.2572 4.57993 17.1062 4.39806 17.0621C4.17898 17.0086 3.94755 16.9592 3.72434 16.9084C3.53006 16.9124 3.33169 16.9485 3.14568 16.8884C3.001 16.8429 2.83563 16.8122 2.59588 16.8296C2.1908 16.859 1.77745 16.8737 1.36823 16.8977C1.22769 16.9057 1.0747 16.9004 1.0127 16.855C0.971365 16.8229 1.09125 16.7788 1.22765 16.7695C1.43433 16.7561 1.62032 16.7401 1.72366 16.6733C1.82286 16.6064 2.00472 16.5864 2.21967 16.577C2.27754 16.5744 2.34372 16.5583 2.37266 16.5423C2.52146 16.4648 2.68682 16.398 3.0051 16.4007C3.13738 16.3739 3.2076 16.3405 3.16627 16.3085C3.14146 16.2911 3.0547 16.2684 3.0051 16.2711C2.66202 16.2844 2.31894 16.2978 1.98413 16.3218C1.82705 16.3325 1.70711 16.3352 1.60791 16.2951C1.53764 16.2684 1.57484 16.2323 1.70711 16.1935C1.82285 16.1601 1.85595 16.1214 1.84769 16.076C1.82702 15.9704 1.70299 15.9397 1.30617 15.9463C1.02095 15.9517 0.950677 15.9343 0.888674 15.8435C0.87214 15.8221 0.830877 15.7927 0.859811 15.778C1.03755 15.6871 1.1533 15.5749 1.48812 15.5321C1.62039 15.5161 1.76088 15.5161 1.84355 15.4813C1.92622 15.4466 2.00066 15.4065 2.08746 15.3731C2.19494 15.333 2.26927 15.2956 2.21967 15.2702C2.13699 15.2248 2.00477 15.2208 1.85182 15.2368C1.71955 15.2502 1.57901 15.2515 1.44261 15.2595C1.19873 15.2742 1.00036 15.2395 0.971426 15.1807C0.892888 15.0257 0.810193 14.872 0.739922 14.717C0.731655 14.6983 0.752266 14.6743 0.785335 14.6582C0.901074 14.6021 1.02513 14.5487 1.145 14.4939C1.28554 14.4311 1.50879 14.4431 1.69894 14.4311C1.96762 14.4137 1.96752 14.415 2.32714 14.2868C2.46768 14.236 2.71158 14.256 2.85625 14.2106C2.90172 14.1959 2.97199 14.1719 2.95959 14.1585C2.94305 14.1411 2.86043 14.1278 2.79842 14.1197C2.74055 14.1117 2.6703 14.1077 2.6083 14.1117C1.85599 14.1505 1.10784 14.1919 0.35553 14.2293C0.22739 14.236 0.086845 14.2066 0.0413759 14.1652C-0.00409319 14.1264 0.00826711 14.0797 0 14.0356C0.119873 13.9808 0.256228 13.93 0.359567 13.8712C0.438104 13.8258 0.529059 13.8057 0.686134 13.8031C0.892811 13.7991 1.09538 13.783 1.32685 13.771C1.75674 13.5759 2.17834 13.3715 2.6413 13.1764C2.82731 13.0976 2.78191 13.0174 2.81911 12.9332C2.85631 12.8557 3.13325 12.8677 3.31926 12.845C3.46806 12.8263 3.5176 12.7835 3.45973 12.7541C3.42666 12.7368 3.3523 12.7167 3.29443 12.7167C3.15802 12.7167 3.02162 12.7288 2.88521 12.7354C2.74881 12.7421 2.59174 12.7381 2.48013 12.7608C2.37266 12.7822 2.30235 12.8276 2.23208 12.8664C2.15354 12.9091 2.05028 12.9239 1.8932 12.9265C1.69066 12.9292 1.48812 12.9412 1.28558 12.9506C1.06237 12.8985 0.83084 12.8477 0.615896 12.7929C0.57456 12.7822 0.566248 12.7515 0.570382 12.7314C0.578649 12.6793 0.516662 12.6473 0.380255 12.6219C0.264515 12.6005 0.169435 12.5698 0.0619629 12.543C0.144634 12.507 0.235604 12.4722 0.301741 12.4335C0.446416 12.3519 0.628312 12.2932 0.942462 12.2958C1.06647 12.2437 1.16565 12.1796 1.32685 12.1435C1.4798 12.1088 1.74022 12.1435 1.85596 12.0647C1.91383 12.0259 2.00068 11.9818 2.11229 11.9658C2.29003 11.9404 2.52151 11.9538 2.62485 11.8789C2.68685 11.8362 2.77775 11.7974 2.89763 11.7867C3.03403 11.7747 3.17454 11.772 3.27374 11.7467C3.32748 11.7333 3.38536 11.7119 3.38536 11.6932C3.38536 11.6812 3.30275 11.6625 3.24488 11.6545C3.19114 11.6451 3.12079 11.6384 3.05879 11.6411C2.85211 11.6491 2.64957 11.6638 2.44289 11.6718C2.38502 11.6745 2.31891 11.6651 2.2569 11.6571C2.07503 11.6357 2.0874 11.609 2.23208 11.5609C2.37675 11.5142 2.48015 11.454 2.60002 11.3992C2.7323 11.3899 2.89761 11.3939 2.98855 11.3685C3.14149 11.3271 3.24894 11.2669 3.37294 11.2148C3.50935 11.2068 3.64988 11.2042 3.77802 11.1895C3.83176 11.1841 3.85658 11.1547 3.90205 11.1373C3.98472 11.1039 4.05505 11.0558 4.16665 11.0398C4.34853 11.0157 4.57174 11.0251 4.67921 10.9516C4.74121 10.9088 4.83625 10.8634 4.95199 10.8608C5.27441 10.8554 5.41082 10.7819 5.57616 10.7124C5.70017 10.6603 5.96472 10.687 6.10113 10.6349C6.19207 10.6015 6.25824 10.5601 6.34918 10.528C6.38638 10.5147 6.46489 10.508 6.5269 10.504C6.86585 10.4839 7.20892 10.4692 7.54787 10.4479C7.60161 10.4438 7.65125 10.4238 7.69259 10.4078C7.77939 10.373 7.83307 10.3249 7.94054 10.3022C8.04801 10.2795 8.20093 10.2795 8.33321 10.2728C8.75896 10.2528 8.79206 10.2581 8.98634 10.1445C9.14342 10.0523 9.52789 10.1178 9.65603 10.0163C9.73043 9.95747 9.86678 9.90937 10.1107 9.90269C10.4537 9.89333 10.7927 9.86794 11.1358 9.85057C11.4417 9.83454 11.4375 9.83453 11.7682 9.71026C11.917 9.65414 12.1361 9.66217 12.3304 9.65148C12.5371 9.64079 12.7272 9.62476 12.8264 9.55795C12.9256 9.49248 13.1075 9.47109 13.3183 9.46173C13.5126 9.45238 13.7317 9.45907 13.8846 9.40562C14.2567 9.27735 14.2525 9.276 14.513 9.26264C14.9222 9.24126 15.3314 9.21988 15.7406 9.19717C16.0134 9.18247 16.2986 9.1798 16.5549 9.1504C16.7409 9.12902 16.8236 9.0542 16.9434 9.00208C17.2824 8.98204 17.6213 8.96199 17.9603 8.94328C18.4356 8.91656 18.9151 8.89251 19.3946 8.86713C19.6013 8.81635 19.6303 8.70411 19.9775 8.69876C20.1842 8.69609 20.3867 8.67872 20.5934 8.66803C20.9365 8.64933 21.2754 8.62527 21.6185 8.61592C21.8789 8.60924 21.9243 8.53708 22.0607 8.49164C22.1062 8.47561 22.1476 8.4529 22.2013 8.44889C22.7387 8.41148 23.2925 8.40346 23.8175 8.34868C23.8712 8.34333 23.9208 8.31527 23.9332 8.29523C23.9415 8.28454 23.8712 8.2645 23.8258 8.25515C23.772 8.24446 23.7018 8.23377 23.6439 8.23644C21.9368 8.32597 20.2296 8.41683 18.5225 8.50636C18.2827 8.51972 18.2827 8.51838 17.6999 8.66536C17.6503 8.67738 17.5924 8.69074 17.5304 8.69475C17.2576 8.71078 16.9806 8.72015 16.7119 8.74019C16.4929 8.75623 16.311 8.74018 16.154 8.69208C16.0424 8.65733 15.9266 8.64665 15.786 8.64932C15.6289 8.65333 15.5257 8.66804 15.4347 8.70411C15.3149 8.75355 15.2528 8.81768 15.0007 8.83105C13.8392 8.8885 12.6776 8.95264 11.5202 9.01411C11.359 8.9954 11.2804 8.96734 11.3218 8.93394C11.3466 8.91389 11.3962 8.88717 11.4458 8.8845C11.9211 8.85644 12.4006 8.83239 12.876 8.80567C12.9421 8.80166 13.033 8.80432 13.0702 8.79095C13.2521 8.73082 13.3183 8.63328 13.6614 8.6266C13.8598 8.62259 14.0623 8.60256 14.2525 8.58385C14.3062 8.57851 14.3558 8.55044 14.3682 8.5304C14.3724 8.51971 14.3062 8.49966 14.2566 8.49031C14.0747 8.45156 13.864 8.49834 13.6821 8.47161C13.6201 8.46226 13.5332 8.44889 13.5208 8.43286C13.5126 8.41816 13.5828 8.39411 13.6325 8.37941C13.6779 8.36605 13.7399 8.35402 13.8019 8.35002C14.3475 8.31928 14.8932 8.28721 15.4389 8.26316C15.6621 8.25381 15.8191 8.2204 15.9183 8.15893C15.9927 8.1135 16.0837 8.08946 16.2242 8.08277C17.1791 8.03333 18.1339 7.97855 19.0929 7.93312C19.3326 7.92243 19.4567 7.87834 19.5559 7.82088C19.6344 7.77545 19.7254 7.75942 19.8783 7.7514C21.2465 7.68191 22.6064 7.60442 23.9746 7.53761C24.2268 7.52558 24.3012 7.46812 24.4293 7.41868C24.4748 7.40131 24.5037 7.37993 24.5615 7.36924C24.6194 7.35855 24.6938 7.35988 24.7641 7.35721C25.8553 7.29975 26.9467 7.2383 28.0421 7.18485C28.2983 7.17282 28.3479 7.106 28.4801 7.05924C28.5256 7.04454 28.567 7.02049 28.6207 7.01648C29.4392 6.97105 30.2576 6.9283 31.076 6.8842C31.6217 6.8548 32.1673 6.8254 32.7129 6.79734C32.9816 6.78398 32.9816 6.78264 33.3453 6.6557C33.3867 6.641 33.4446 6.62363 33.4983 6.61962C35.0691 6.5341 36.6357 6.45261 38.2064 6.36843C38.3387 6.36175 38.4337 6.331 38.4999 6.28557C38.566 6.24014 38.6612 6.2094 38.7893 6.20272C40.017 6.13591 41.2446 6.07044 42.4764 6.00764C42.6996 5.99695 42.8567 5.96488 42.9559 5.90475C43.0303 5.85932 43.1212 5.83528 43.2617 5.82859C44.4894 5.76446 45.7171 5.6963 46.9489 5.63483C47.1845 5.62281 47.3002 5.57738 47.416 5.52394C47.4573 5.50523 47.4904 5.47449 47.54 5.47182C48.1518 5.43441 48.7594 5.39566 49.3753 5.37027C49.6316 5.35958 49.7184 5.30345 49.8217 5.25001C49.9044 5.20725 49.9995 5.19255 50.1566 5.18721C50.4997 5.17518 50.8386 5.15248 51.1734 5.12976C51.223 5.12575 51.285 5.09635 51.2892 5.07765C51.2974 5.04291 51.2023 5.01885 51.0453 5.00682C49.4084 5.09368 47.7674 5.18052 46.1305 5.26738C45.8618 5.28208 45.8618 5.28208 45.4981 5.40902C45.4567 5.42372 45.3988 5.4411 45.3409 5.4451C43.7702 5.52928 42.2036 5.61213 40.6329 5.69631C40.5006 5.70299 40.4055 5.73372 40.3394 5.77916C40.2733 5.82459 40.1781 5.85532 40.05 5.862C38.5495 5.94217 37.049 6.02368 35.5444 6.09985C35.3212 6.11054 35.1642 6.14126 35.065 6.20272C34.9906 6.24815 34.8996 6.27221 34.7591 6.2789C33.3247 6.35372 31.8945 6.43255 30.456 6.50471C30.3113 6.51139 30.2039 6.47264 30.2122 6.43656C30.2163 6.41785 30.2782 6.38713 30.3278 6.38446C31.076 6.34037 31.8201 6.29493 32.5724 6.26152C32.8246 6.25083 32.8989 6.19204 33.0271 6.1426C33.0684 6.12523 33.1015 6.10251 33.1552 6.09316C33.2131 6.08247 33.2875 6.08381 33.3578 6.08114C35.1311 5.98627 36.9044 5.89007 38.6818 5.80054C38.9381 5.78718 38.9876 5.72169 39.1199 5.67493C39.1654 5.65889 39.2067 5.63485 39.2605 5.63218C39.8061 5.60011 40.3517 5.57204 40.8974 5.54398C41.8522 5.49321 42.807 5.44243 43.766 5.39165C44.043 5.37695 44.043 5.37695 44.3985 5.25134C44.4398 5.23665 44.4977 5.21795 44.5515 5.21528C47.0771 5.08032 49.6027 4.94536 52.1283 4.81174C52.2606 4.80506 52.3556 4.77433 52.4218 4.7289C52.4879 4.6848 52.5829 4.65273 52.7111 4.64472C56.1254 4.46299 59.5356 4.28126 62.9499 4.10221C63.1731 4.09018 63.3302 4.06212 63.4294 3.99932C63.4996 3.95389 63.5947 3.92984 63.7352 3.92182C67.4885 3.72273 71.2418 3.52364 74.9992 3.32321C77.5248 3.18959 80.0504 3.05329 82.576 2.92234C82.8075 2.91032 82.9314 2.86889 83.0472 2.8141C83.0844 2.7954 83.1216 2.76466 83.1712 2.76199C83.7127 2.72859 84.2542 2.69786 84.7957 2.66712C84.9652 2.7032 85.1346 2.73795 85.3041 2.77403C85.4322 2.72325 85.5563 2.67114 85.6845 2.62036C86.5029 2.58161 87.3089 2.52148 88.1356 2.50277C88.1894 2.50144 88.2472 2.52683 88.3051 2.54019C88.6895 2.62437 88.9086 2.61769 89.1525 2.50545C89.2393 2.46536 89.3137 2.42929 89.4459 2.42261C89.8551 2.39855 90.2686 2.38252 90.6737 2.35446C90.8928 2.33976 91.0746 2.35312 91.2317 2.40122C91.3433 2.43596 91.459 2.45067 91.5955 2.44265C92.3478 2.40257 93.0959 2.36381 93.8482 2.32105C93.902 2.31838 93.9515 2.29566 93.9928 2.27962C94.0796 2.24488 94.1541 2.20747 94.2367 2.1714C94.3484 2.19411 94.4724 2.21149 94.5633 2.24088C94.6791 2.27562 94.7865 2.27562 94.9436 2.26626C97.9445 2.10458 100.95 1.94691 103.951 1.78389C104.207 1.77053 104.319 1.82666 104.492 1.85605C104.55 1.86674 104.608 1.8801 104.67 1.88277C104.736 1.88544 104.806 1.87743 104.872 1.87343C107.125 1.75317 109.378 1.63424 111.631 1.51398C111.928 1.49794 111.928 1.49794 112.371 1.58079C112.424 1.59148 112.495 1.60351 112.553 1.5995C113.578 1.54739 114.603 1.49127 115.624 1.43782C115.756 1.43114 115.868 1.45252 115.988 1.48325C116.223 1.54338 116.24 1.54338 116.413 1.45519C116.496 1.41377 116.583 1.38837 116.719 1.37634C116.868 1.36298 116.988 1.36701 117.104 1.39106C117.269 1.42446 117.389 1.48057 117.641 1.46588C118.732 1.40307 119.828 1.35097 120.915 1.28683C121.163 1.27213 121.295 1.31756 121.46 1.35096C121.518 1.36299 121.572 1.3817 121.634 1.38571C121.696 1.38972 121.77 1.38035 121.837 1.37634C123.201 1.30419 124.569 1.23338 125.929 1.15588C126.185 1.14119 126.297 1.19863 126.47 1.22803C126.528 1.23872 126.594 1.25743 126.648 1.25476C127.466 1.21334 128.289 1.16923 129.107 1.12514C129.401 1.1091 129.401 1.11044 129.847 1.19195C129.901 1.20264 129.971 1.21333 130.029 1.21066C130.984 1.16122 131.943 1.11044 132.898 1.05966C133.191 1.04363 133.191 1.04363 134.039 1.11312C134.101 1.11846 134.167 1.12649 134.229 1.12382C135.32 1.06636 136.416 1.01023 137.507 0.948765C137.726 0.936739 137.908 0.947426 138.065 0.995529C138.176 1.03027 138.292 1.04498 138.429 1.03696C139.656 0.971485 140.888 0.908686 142.112 0.839203C142.347 0.825841 142.5 0.855226 142.665 0.893976C142.719 0.907338 142.773 0.926049 142.835 0.931394C142.897 0.936739 142.967 0.93139 143.033 0.927381C144.261 0.861907 145.493 0.800444 146.716 0.729625C146.964 0.714927 147.097 0.760355 147.262 0.793761C147.32 0.805786 147.382 0.829839 147.431 0.828503C147.911 0.805788 148.39 0.785752 148.866 0.752347C149.122 0.73364 149.234 0.795094 149.407 0.824491C149.465 0.833844 149.531 0.853897 149.585 0.851225C150.61 0.799113 151.635 0.744332 152.656 0.688211C152.801 0.680194 152.908 0.692209 153.024 0.72695C153.177 0.773718 153.355 0.792425 153.578 0.777727C154.053 0.746994 154.533 0.725621 155.012 0.700233C155.293 0.685534 155.293 0.685539 156.153 0.755022C156.215 0.760366 156.281 0.768378 156.343 0.765705C157.162 0.722947 157.984 0.681527 158.799 0.63476C159.018 0.621398 159.2 0.63342 159.357 0.681524C159.468 0.716265 159.58 0.730971 159.72 0.722954C160.473 0.682868 161.221 0.642778 161.973 0.602692C162.246 0.587994 162.519 0.562599 162.792 0.562599C162.99 0.563936 163.135 0.628071 163.313 0.66014C163.362 0.669493 163.445 0.658816 163.511 0.656144C164.466 0.605368 165.425 0.558596 166.376 0.501139C166.624 0.486441 166.756 0.531869 166.921 0.565274C166.979 0.5773 167.041 0.601353 167.091 0.600017C167.434 0.585319 167.773 0.565274 168.116 0.547903C168.525 0.526524 168.938 0.510489 169.343 0.481093C169.674 0.457041 169.798 0.573287 170.063 0.577296C170.265 0.581304 170.472 0.558593 170.674 0.547903C171.084 0.526524 171.493 0.502475 171.902 0.483768C172.047 0.477087 172.158 0.455698 172.204 0.407595C172.212 0.398241 172.142 0.378207 172.096 0.366181C171.547 0.229888 171.547 0.229881 170.993 0.259278C170.65 0.277985 170.311 0.296695 169.968 0.312729C169.91 0.315402 169.844 0.304713 169.786 0.296696C169.62 0.27398 169.637 0.247259 169.777 0.199155C169.918 0.151052 170.025 0.0922638 170.145 0.0374793C170.315 0.0722207 170.48 0.10695 170.65 0.141691C170.786 0.13501 170.922 0.127005 171.059 0.120324C171.741 0.0855821 172.423 0.0495019 173.105 0.017433C173.155 0.0147606 173.217 0.0414886 173.274 0.0548507C173.44 0.0936007 173.589 0.126997 173.828 0.112298C174.44 0.0735485 175.056 0.0454881 175.668 0.0120829C175.936 -0.00261533 175.936 -0.00261402 176.408 0.0802308C176.461 0.0895842 176.532 0.100275 176.59 0.0976021C177.205 0.0668694 177.817 0.0334681 178.433 0.00139916C178.565 -0.00528187 178.694 0.0120882 178.789 0.0508382C178.826 0.0668726 178.818 0.0935915 178.975 0.312729C179.462 0.490445 179.797 0.471747 180.136 0.455713C180.281 0.449032 180.409 0.442344 180.504 0.41562C180.554 0.400922 180.616 0.379539 180.616 0.362168C180.616 0.348806 180.525 0.327423 180.467 0.324751C180.058 0.298027 179.669 0.354155 179.268 0.366181C179.082 0.371526 178.921 0.324758 178.888 0.248594C178.88 0.227215 178.867 0.204501 178.855 0.183121C178.842 0.161742 178.834 0.139028 178.822 0.117648C178.661 0.110967 178.565 0.135015 178.495 0.180446C178.437 0.21786 178.355 0.260619 178.243 0.280662C178.131 0.302041 177.978 0.29804 177.842 0.304721C177.71 0.311402 177.565 0.32877 177.441 0.319417C177.317 0.308727 177.218 0.269971 177.102 0.245919C177.048 0.233893 176.982 0.216529 176.929 0.219201C176.453 0.241917 175.982 0.264624 175.511 0.294021C175.263 0.310055 175.139 0.253943 174.982 0.219201C174.858 0.192477 174.734 0.19915 174.713 0.260615C174.659 0.407598 174.849 0.46906 175.271 0.441C175.618 0.416948 175.932 0.412952 176.205 0.503814C176.242 0.51584 176.329 0.521183 176.383 0.51851C176.722 0.502476 177.057 0.482431 177.396 0.466396C177.458 0.463724 177.524 0.46906 177.582 0.474405C178.425 0.54656 178.425 0.547904 178.71 0.531869C178.847 0.523852 178.979 0.51717 178.966 0.314067C179.227 0.0962653 179.64 0.0815696 180.041 0.0495006C180.302 0.0294575 180.413 0.0882532 180.583 0.118986C180.64 0.129676 180.702 0.151051 180.756 0.148379C181.645 0.104284 182.529 0.0575101 183.414 0.00807041C183.563 5.31674e-05 183.67 0.00807171 183.786 0.0428131C183.935 0.0869079 184.1 0.114974 184.336 0.0989396C184.807 0.0668707 185.287 0.0468321 185.766 0.020108C186.01 0.00674594 186.01 0.00673225 186.502 0.0895771C186.556 0.0989305 186.626 0.109621 186.684 0.106948C187.163 0.0842329 187.639 0.056181 188.114 0.0321293C188.246 0.0254483 188.366 0.0441532 188.469 0.0802308C188.573 0.116308 188.697 0.135013 188.825 0.128332C189.304 0.104281 189.78 0.0775649 190.255 0.0535132C190.313 0.0508408 190.383 0.0601936 190.437 0.069547C190.941 0.152392 190.941 0.152378 191.173 0.139016C191.512 0.118973 191.859 0.10963 192.194 0.0829058C192.52 0.0561817 192.69 0.133675 192.913 0.176434C193.525 0.145701 194.141 0.12032 194.748 0.0829058C194.996 0.0668713 195.129 0.110962 195.294 0.145704C195.352 0.157729 195.41 0.18312 195.463 0.181784C195.67 0.176439 195.873 0.161743 196.075 0.151054C196.278 0.140364 196.484 0.129676 196.687 0.118986C196.918 0.157736 197.071 0.248597 197.402 0.217864C197.6 0.199157 197.811 0.195148 198.014 0.184459C198.216 0.173769 198.423 0.163081 198.626 0.152391C198.762 0.14571 198.902 0.141696 199.035 0.12967C199.279 0.109627 199.399 0.175109 199.572 0.204505C199.63 0.213859 199.696 0.229883 199.75 0.22721C200.159 0.208503 200.572 0.19247 200.973 0.161737C201.283 0.137686 201.494 0.177777 201.713 0.233898C201.759 0.245924 201.837 0.252604 201.895 0.249932C202.375 0.227216 202.85 0.199148 203.325 0.175096C203.453 0.168415 203.578 0.189794 203.681 0.224535C203.788 0.260613 203.908 0.277997 204.04 0.271316C204.516 0.247264 204.995 0.220532 205.471 0.19648C205.529 0.193808 205.599 0.204499 205.653 0.215189C206.116 0.298034 206.116 0.299371 206.388 0.283337C206.454 0.279328 206.525 0.276645 206.591 0.272637C206.93 0.25393 207.281 0.247258 207.612 0.215189C207.992 0.179111 208.269 0.224544 208.538 0.300708C208.877 0.284674 209.224 0.275318 209.555 0.248594C209.803 0.228551 209.935 0.279324 210.1 0.312729C210.158 0.324755 210.22 0.348807 210.27 0.346135C210.749 0.323419 211.229 0.303383 211.7 0.269978C211.956 0.251271 212.068 0.311389 212.241 0.342122C212.299 0.352812 212.361 0.371528 212.415 0.368856C212.688 0.358166 212.961 0.342124 213.234 0.327426C213.552 0.310055 213.552 0.31139 213.973 0.392899C214.172 0.431649 214.37 0.400914 214.565 0.391561C214.771 0.380871 214.965 0.372857 215.131 0.427641C215.234 0.462383 215.358 0.483763 215.486 0.478418C215.759 0.466392 216.036 0.454372 216.305 0.434329C216.52 0.418294 216.706 0.428978 216.863 0.478418C216.974 0.513159 217.09 0.53054 217.227 0.522523C217.838 0.490454 218.454 0.457036 219.066 0.426304C219.12 0.423631 219.194 0.435662 219.244 0.447688C219.359 0.471739 219.471 0.498458 219.583 0.525182C219.851 0.513156 220.128 0.507825 220.393 0.489118C220.674 0.470411 220.93 0.463728 221.149 0.537219C221.195 0.553254 221.261 0.575957 221.315 0.574621C221.521 0.569276 221.724 0.555918 221.926 0.545228C222.129 0.534538 222.336 0.52385 222.538 0.51316C222.774 0.546566 222.923 0.642771 223.253 0.612038C223.452 0.593332 223.662 0.589323 223.865 0.578633C224.068 0.567944 224.274 0.555919 224.477 0.546566C224.543 0.543893 224.617 0.537208 224.675 0.542553C224.737 0.547898 224.791 0.566609 224.845 0.579971C225.01 0.618721 225.163 0.657475 225.399 0.63476C225.597 0.616053 225.808 0.612043 226.01 0.600017C226.287 0.585319 226.287 0.585321 226.746 0.669502C226.932 0.704244 227.143 0.658815 227.321 0.688211C227.441 0.708254 227.544 0.741652 227.66 0.764368C227.709 0.773721 227.788 0.777724 227.846 0.775052C228.118 0.763026 228.395 0.751006 228.664 0.730963C228.883 0.714928 229.065 0.730961 229.218 0.779064C229.33 0.813806 229.441 0.828512 229.582 0.820495C230.264 0.783081 230.946 0.751001 231.624 0.709579C231.855 0.694881 232.041 0.717602 232.169 0.765705C232.388 0.84855 232.698 0.751009 232.926 0.817819C233.066 0.859242 233.207 0.907348 233.463 0.887305C233.934 0.852564 234.414 0.833846 234.889 0.809794C235.059 0.845872 235.228 0.881957 235.402 0.918035C235.675 0.903337 235.947 0.888629 236.22 0.875267C236.423 0.864578 236.629 0.852553 236.832 0.8432C236.898 0.840527 236.968 0.835181 237.03 0.841862C237.092 0.848543 237.142 0.865918 237.2 0.87928C237.485 0.944754 237.485 0.946097 237.956 0.919372C238.159 0.907347 238.353 0.899329 238.523 0.952778C238.68 1.00222 238.866 1.01156 239.081 0.996867C239.486 0.970142 239.895 0.950101 240.308 0.931394C240.436 0.924713 240.556 0.947429 240.664 0.98217C240.825 1.03695 241.023 1.03161 241.226 1.01691C241.495 0.998206 241.759 0.979503 241.986 1.05433C242.032 1.07037 242.102 1.09307 242.152 1.09173C242.491 1.08104 242.834 1.07303 243.165 1.04764C243.495 1.02226 243.656 1.1051 243.884 1.14518C244.223 1.12781 244.566 1.11044 244.905 1.09307C244.971 1.08906 245.049 1.07704 245.107 1.08372C245.351 1.11178 245.492 1.212 245.827 1.18126C246.021 1.16389 246.232 1.15855 246.434 1.15455C246.488 1.15321 246.558 1.17591 246.595 1.19329C246.616 1.20264 246.595 1.22802 246.571 1.24139C246.496 1.2788 246.405 1.31355 246.339 1.3523C246.331 1.35765 246.409 1.38169 246.455 1.39238C246.566 1.41643 246.695 1.41243 246.843 1.40174C246.972 1.39239 247.104 1.41109 247.195 1.45118C247.232 1.46721 247.22 1.49394 247.141 1.58213C247.141 1.6476 247.228 1.6182 247.257 1.57544C247.302 1.51397 247.215 1.49393 247.05 1.52734C246.934 1.55139 246.877 1.58613 246.905 1.61419C246.922 1.62889 247 1.6476 247.141 1.58213C247.505 1.50195 247.778 1.48726 248.05 1.47256C248.121 1.46856 248.203 1.45518 248.253 1.4632C248.431 1.49527 248.596 1.53403 248.77 1.5701C248.968 1.56209 249.154 1.54203 249.348 1.59415C249.621 1.66764 249.634 1.66096 249.898 1.64626C250.035 1.63824 250.171 1.63157 250.307 1.62489C250.444 1.61821 250.551 1.63825 250.671 1.66898C250.915 1.73178 250.936 1.73178 251.097 1.64626C251.192 1.59415 251.258 1.57678 251.378 1.60083C251.775 1.68234 251.779 1.68768 252.118 1.66363C252.399 1.64359 252.663 1.63825 252.87 1.71441C253.011 1.76786 253.056 1.75583 253.168 1.69971C253.465 1.55139 253.602 1.55406 254.16 1.66096C254.42 1.71173 254.689 1.65695 254.953 1.65027C255.177 1.64493 255.334 1.67699 255.35 1.76117C255.363 1.81328 255.4 1.85071 255.549 1.86808C255.607 1.87476 255.677 1.88411 255.735 1.88143C256.078 1.8654 256.417 1.84669 256.76 1.82798C256.933 1.81863 257.029 1.75584 256.995 1.67299C256.958 1.58481 257.024 1.55272 257.272 1.52734C257.421 1.51264 257.541 1.51532 257.661 1.53937C257.793 1.5661 257.756 1.59015 257.64 1.63825C257.363 1.75584 257.396 1.82798 257.752 1.90949C257.876 1.93755 257.975 1.96295 258.004 2.00437C258.021 2.02575 258.004 2.05381 258.041 2.06984C258.244 2.15937 258.525 2.21683 258.839 2.25959C259.141 2.22351 259.347 2.28363 259.579 2.33174C259.761 2.36915 259.976 2.33709 260.17 2.32373C260.389 2.30903 260.571 2.31971 260.728 2.36915C260.84 2.40389 260.955 2.41992 261.092 2.41324C261.365 2.39854 261.642 2.3892 261.91 2.36782C262.142 2.34911 262.315 2.37584 262.46 2.42127C262.642 2.47872 262.844 2.43997 263.035 2.44799C263.291 2.45734 263.419 2.57626 263.754 2.54419C263.952 2.52548 264.159 2.5188 264.366 2.51346C264.419 2.51212 264.485 2.53484 264.531 2.55088C264.75 2.62437 265.006 2.62036 265.287 2.59898C265.482 2.58428 265.672 2.57092 265.862 2.6217C266.176 2.70722 266.523 2.78205 266.854 2.86088C266.899 2.92235 266.866 2.99449 267.102 3.03057C267.226 3.04928 267.342 3.07735 267.437 3.10808C267.553 3.14416 267.66 3.15351 267.809 3.14416C268.077 3.12545 268.359 3.12143 268.623 3.09738C268.867 3.076 269.02 3.12011 269.169 3.16153C269.289 3.19494 269.4 3.21096 269.545 3.18691C269.694 3.1642 269.801 3.17889 269.921 3.21497C270.091 3.26441 270.103 3.25907 270.665 3.27377C270.723 3.2751 270.793 3.29514 270.826 3.31251C270.843 3.32186 270.806 3.3486 270.777 3.36196C270.74 3.378 270.682 3.39669 270.628 3.4007C270.016 3.43544 269.4 3.46618 268.788 3.50092C268.726 3.50493 268.66 3.51429 268.615 3.52765C268.565 3.54235 268.503 3.56238 268.503 3.58109C268.503 3.59445 268.586 3.61049 268.644 3.61984C268.826 3.65057 269.041 3.60381 269.218 3.63855C269.338 3.66127 269.437 3.69333 269.557 3.71471C269.607 3.72406 269.685 3.72273 269.747 3.72006C269.954 3.7107 270.157 3.69734 270.363 3.68933C270.421 3.68799 270.487 3.70136 270.541 3.71205C270.938 3.79222 270.938 3.79222 271.281 3.77485C271.417 3.76816 271.562 3.74812 271.69 3.75614C271.814 3.76415 271.922 3.80023 272.033 3.82295C272.265 3.87105 272.484 3.91782 272.5 4.02204C272.509 4.06213 272.645 4.09686 272.781 4.09953C272.914 4.10221 273.054 4.08752 273.191 4.0795C273.513 4.06347 273.513 4.06347 273.931 4.14498C274.046 4.16769 274.17 4.17036 274.319 4.157C274.377 4.15165 274.447 4.15701 274.509 4.16369C274.712 4.18373 274.712 4.20911 274.58 4.25721C274.394 4.32803 274.41 4.33472 274.931 4.39485C275.129 4.41756 275.282 4.46032 275.448 4.49774C275.716 4.55787 275.712 4.55786 275.534 4.63669C275.493 4.65406 275.456 4.67277 275.415 4.69148C275.295 4.74359 275.2 4.79971 274.952 4.80506C274.679 4.8104 274.406 4.83179 274.133 4.84649C273.869 4.86118 273.798 4.89324 273.823 4.9841C273.852 5.09367 273.906 5.1057 274.381 5.10436C274.518 5.10436 274.637 5.11505 274.741 5.15113C274.691 5.19389 274.6 5.22729 274.468 5.23531C274.129 5.25535 273.786 5.27273 273.447 5.2901C273.174 5.3048 272.901 5.31949 272.629 5.33419C272.459 5.34354 272.352 5.41303 272.397 5.49053C272.422 5.53463 272.443 5.57872 272.463 5.62281C272.509 5.711 272.595 5.73373 272.872 5.72972C272.943 5.72838 273.009 5.71768 273.075 5.72035C273.344 5.72971 273.472 5.84061 273.794 5.81789C274.063 5.79919 274.344 5.79518 274.609 5.77113C274.852 5.74975 274.989 5.79787 275.158 5.83394C275.216 5.84597 275.278 5.87134 275.328 5.87001C275.671 5.85531 276.014 5.84062 276.349 5.81524C276.506 5.80455 276.601 5.81256 276.725 5.84463C277.022 5.92213 277.031 5.91812 277.473 5.89407C277.796 5.87536 277.8 5.87803 278.213 5.95954C278.329 5.98226 278.453 5.98225 278.602 5.97156C278.796 5.9582 278.998 5.93682 279.201 5.95686C279.263 5.96221 279.341 5.97825 279.362 5.99562C279.375 6.00765 279.317 6.03704 279.267 6.0464C278.903 6.11588 278.478 6.10386 278.081 6.13192C277.957 6.13993 277.833 6.11454 277.729 6.07846C277.622 6.04239 277.506 6.02769 277.366 6.03438C277.093 6.04907 276.816 6.05842 276.547 6.0798C276.316 6.09851 276.154 6.06777 275.993 6.02635C275.939 6.01299 275.878 5.9876 275.824 5.98893C275.212 6.01566 274.596 6.04239 273.989 6.0798C273.745 6.09584 273.604 6.05308 273.439 6.017C273.381 6.00498 273.323 5.97959 273.269 5.98092C273.063 5.98627 272.86 6.00096 272.653 6.01165C271.901 6.05174 271.153 6.09183 270.401 6.12924C270.351 6.13191 270.289 6.10385 270.231 6.09182C270.119 6.06777 270.004 6.04505 269.888 6.02234C269.681 6.03303 269.479 6.04639 269.272 6.05441C269.123 6.05975 268.991 6.07846 268.97 6.12924C268.958 6.16265 269.094 6.19337 269.239 6.1907C269.38 6.18803 269.52 6.17199 269.636 6.18936C270.21 6.27488 270.21 6.27622 270.57 6.25885C270.884 6.24281 270.851 6.22945 271.128 6.30294C271.248 6.33501 271.355 6.35372 271.492 6.34571C271.831 6.327 272.174 6.30829 272.517 6.29225C272.571 6.28958 272.641 6.30295 272.695 6.31364C273.1 6.39381 273.1 6.39648 273.435 6.37644C273.873 6.35238 273.889 6.3457 274.183 6.42721C274.385 6.48333 274.571 6.44458 274.766 6.44191C274.989 6.49402 275.233 6.5408 275.435 6.59959C275.675 6.66907 275.927 6.65703 276.2 6.63699C276.402 6.62229 276.601 6.61695 276.766 6.67173C276.923 6.72251 277.113 6.72786 277.328 6.7145C277.523 6.70247 277.721 6.67708 277.924 6.70647C277.977 6.71449 278.06 6.73454 278.056 6.74657C278.052 6.76527 277.998 6.792 277.944 6.80002C277.564 6.8548 277.147 6.85346 276.746 6.87885C276.692 6.88286 276.622 6.86816 276.568 6.85747C276.452 6.83342 276.34 6.80536 276.229 6.77997C276.026 6.78799 275.82 6.79066 275.621 6.80669C275.468 6.81872 275.353 6.81739 275.241 6.78532C275.138 6.75593 275.026 6.71984 274.902 6.71049C274.778 6.70113 274.633 6.72118 274.497 6.7292C274.361 6.73721 274.203 6.7332 274.096 6.75458C273.989 6.77596 273.922 6.82273 273.852 6.86014C273.774 6.90156 273.666 6.91494 273.509 6.91894C273.364 6.92295 273.249 6.9176 273.141 6.88019C273.096 6.86415 273.034 6.85212 272.972 6.84143C272.914 6.83208 272.848 6.81738 272.794 6.82005C272.178 6.85078 271.566 6.8842 270.95 6.91627C270.644 6.9323 270.649 6.93229 270.012 6.85345C269.954 6.84677 269.884 6.83742 269.826 6.8401C269.483 6.85613 269.144 6.87484 268.801 6.89355C268.454 6.91225 268.458 6.90958 267.867 6.8254C267.759 6.80936 267.602 6.83075 267.474 6.82807C267.205 6.82139 267.073 6.70915 266.759 6.73053C266.49 6.74924 266.209 6.75325 265.94 6.7773C265.697 6.79868 265.556 6.75191 265.391 6.71584C265.333 6.70381 265.271 6.67708 265.221 6.67976C264.605 6.70915 263.994 6.74256 263.175 6.74657C262.973 6.74657 263.063 6.77463 263.196 6.78399C263.386 6.79868 263.448 6.77062 263.345 6.71718C263.27 6.67976 263.163 6.66104 263.076 6.67039C263.03 6.67574 262.973 6.70114 263.175 6.74657C263.39 6.79734 263.378 6.8254 263.415 6.84143C263.506 6.88018 263.634 6.89622 263.766 6.89087C263.973 6.88152 264.175 6.86816 264.382 6.86014C264.44 6.85747 264.51 6.86682 264.564 6.87751C265.019 6.96036 265.023 6.96571 265.506 6.93364C265.659 6.92429 265.771 6.92429 265.891 6.94967C266.056 6.98442 266.176 7.0432 266.428 7.02449C266.763 6.9991 267.106 6.98442 267.449 6.96972C267.503 6.96705 267.561 6.9911 267.623 7.00179C267.792 7.03386 267.916 7.09399 268.168 7.0686C268.363 7.04855 268.574 7.0432 268.78 7.03919C268.834 7.03785 268.917 7.05924 268.941 7.07661C268.991 7.10734 268.929 7.14343 268.788 7.16881C268.731 7.1795 268.652 7.17683 268.586 7.18083C268.313 7.19553 268.04 7.21156 267.767 7.22359C267.623 7.23027 267.486 7.25032 267.47 7.29976C267.457 7.33316 267.606 7.36255 267.747 7.35988C267.953 7.35587 268.16 7.34518 268.359 7.32781C268.71 7.29842 269.016 7.30643 269.301 7.39061C269.504 7.44941 269.491 7.42804 269.706 7.60174C269.76 7.64584 269.921 7.64984 270.062 7.64717C270.401 7.64049 270.558 7.66054 270.529 7.70196C270.491 7.75273 270.372 7.76876 270.219 7.77544C269.946 7.78613 269.673 7.80351 269.4 7.81821C269.334 7.82222 269.26 7.83023 269.198 7.82755C269.136 7.82488 269.078 7.80885 269.024 7.79682C268.908 7.77144 268.809 7.73268 268.685 7.72333C268.561 7.71397 268.416 7.73402 268.28 7.74203C268.144 7.74872 267.999 7.76876 267.875 7.75941C267.751 7.75005 267.648 7.70998 267.536 7.68593C267.482 7.6739 267.416 7.65518 267.362 7.65652C267.09 7.66721 266.817 7.68458 266.544 7.69795C266.209 7.71532 266.209 7.71532 265.804 7.63247C265.688 7.60842 265.568 7.60976 265.416 7.62045C265.085 7.64183 265.081 7.63781 264.477 7.56031C264.419 7.5523 264.349 7.54295 264.291 7.54695C263.675 7.57769 263.063 7.61109 262.452 7.64316C261.927 7.67122 261.927 7.67123 261.637 7.80485C261.422 7.90373 261.418 7.90372 261.629 7.94915C261.799 7.98657 261.952 8.04135 262.138 8.06139C262.311 8.0801 262.526 8.01997 262.716 8.08144C262.811 8.11217 262.935 8.14558 263.055 8.15092C263.245 8.1576 263.448 8.11885 263.63 8.17764C263.721 8.20704 263.857 8.23778 263.973 8.23912C264.175 8.24179 264.382 8.2204 264.585 8.21105C264.647 8.20837 264.717 8.20838 264.775 8.21506C264.837 8.22307 264.891 8.23911 264.944 8.25247C265.11 8.29791 265.287 8.31928 265.502 8.29656C265.854 8.25915 266.168 8.27786 266.441 8.36337C266.478 8.3754 266.569 8.37674 266.627 8.3714C266.775 8.35804 266.904 8.3567 267.015 8.38208C267.061 8.39277 267.127 8.41147 267.118 8.4235C267.106 8.44354 267.056 8.47027 267.003 8.47695C266.614 8.52238 266.197 8.52773 265.796 8.55178C265.742 8.55446 265.676 8.53708 265.622 8.52505C265.506 8.501 265.407 8.46092 265.283 8.45157C265.159 8.44221 265.015 8.45958 264.878 8.46626C264.742 8.47295 264.597 8.49299 264.473 8.48497C264.349 8.47562 264.233 8.44221 264.134 8.41281C264.018 8.37941 263.907 8.37541 263.754 8.38877C263.555 8.40614 263.349 8.40881 263.146 8.41816C263.035 8.39278 262.923 8.36471 262.807 8.34065C262.754 8.32863 262.687 8.31394 262.63 8.31527C262.357 8.32596 262.084 8.34199 261.811 8.35669C261.538 8.37139 261.538 8.3714 261.075 8.28856C261.022 8.2792 260.951 8.26851 260.893 8.27118C260.55 8.28722 260.211 8.30725 259.868 8.32328C259.736 8.32996 259.616 8.31126 259.509 8.27518C259.405 8.2391 259.281 8.21906 259.153 8.22574C258.608 8.2538 258.062 8.28053 257.516 8.31394C257.297 8.3273 257.111 8.31528 256.962 8.26717C256.789 8.21239 256.594 8.22575 256.392 8.23644C255.933 8.26317 255.929 8.26182 255.635 8.19367C255.578 8.18031 255.52 8.15492 255.466 8.15626C254.991 8.1763 254.511 8.19501 254.04 8.22708C253.792 8.24445 253.66 8.19769 253.494 8.16294C253.436 8.15092 253.374 8.12553 253.325 8.1282C252.982 8.1429 252.639 8.15627 252.304 8.18299C251.969 8.20971 251.841 8.08545 251.589 8.08679C251.246 8.08812 250.907 8.11886 250.568 8.13756C250.295 8.15226 250.022 8.16695 249.749 8.18165C249.476 8.19635 249.204 8.20837 248.931 8.22574C248.786 8.2351 248.679 8.22307 248.559 8.18966C248.406 8.14557 248.224 8.11084 248.059 8.07075C247.807 8.0133 247.807 8.01329 247.501 8.02932C247.435 8.03333 247.364 8.036 247.298 8.04001C246.798 8.0694 246.798 8.06674 246.161 7.98256C246.132 7.97855 246.058 7.99325 246.029 8.00394C245.942 8.03868 245.864 8.07609 245.785 8.11217C245.674 8.09079 245.537 8.07876 245.463 8.04803C245.252 7.96118 244.921 8.0801 244.706 7.99458C244.628 7.96251 244.491 7.93445 244.367 7.92643C244.239 7.91842 244.095 7.93712 243.962 7.94514C243.619 7.96518 243.619 7.96385 243.326 8.08277C243.177 8.14157 242.962 8.13087 242.768 8.14423C242.565 8.15893 242.371 8.16695 242.201 8.11217C242.048 8.06273 241.863 8.05071 241.643 8.06674C241.375 8.08678 241.098 8.0988 240.825 8.11083C240.767 8.1135 240.697 8.10683 240.639 8.09881C240.007 8.01997 240.006 8.01864 239.701 8.03601C239.564 8.04403 239.424 8.04669 239.291 8.05872C239.068 8.08009 238.899 8.05204 238.738 8.00928C238.684 7.99591 238.622 7.97054 238.568 7.97188C238.295 7.97856 238.027 7.99058 237.758 8.00261C237.551 8.01196 237.345 8.0173 237.146 8.03601C236.815 8.06674 236.654 7.97988 236.427 7.93979C236.088 7.95716 235.745 7.96919 235.406 7.99324C235.249 8.00393 235.146 7.99993 235.026 7.96786C234.873 7.92778 234.732 7.88235 234.484 7.90239C234.153 7.92911 233.806 7.93847 233.467 7.9545C233.24 7.91308 233.075 7.82889 232.748 7.85962C232.55 7.87833 232.339 7.88234 232.136 7.89303C231.863 7.90773 231.591 7.9211 231.318 7.93713C231.024 7.95317 231.028 7.94916 230.578 7.87032C230.318 7.82355 230.049 7.87566 229.784 7.88368C229.578 7.89036 229.474 7.95182 229.524 8.03066C229.573 8.1095 229.462 8.17096 229.272 8.18165C228.796 8.20704 228.317 8.23376 227.841 8.25647C227.784 8.25914 227.713 8.24979 227.66 8.24044C227.151 8.15626 227.151 8.15761 226.924 8.16963C226.585 8.18967 226.238 8.20035 225.903 8.22574C225.671 8.24311 225.502 8.21506 225.353 8.16963C225.237 8.13489 225.13 8.12687 224.981 8.13489C223.344 8.22441 221.707 8.30726 220.075 8.39946C219.831 8.41282 219.69 8.37407 219.525 8.33799C219.467 8.32597 219.413 8.30058 219.355 8.30058C219.219 8.30058 219.082 8.31261 218.946 8.32062C218.334 8.35269 217.723 8.39144 217.107 8.41549C216.846 8.42618 216.776 8.48765 216.664 8.53843C216.578 8.57718 216.478 8.5932 216.325 8.59855C216.177 8.60389 216.069 8.59721 215.953 8.56247C215.805 8.51704 215.635 8.48897 215.404 8.50768C215.135 8.52906 214.862 8.53842 214.585 8.55312C214.445 8.5598 214.337 8.58385 214.292 8.63195C214.283 8.63997 214.37 8.66002 214.42 8.67205C214.585 8.71213 214.742 8.7589 214.928 8.78696C215.118 8.81502 215.325 8.78294 215.523 8.77492C215.594 8.77225 215.66 8.76424 215.726 8.76557C215.788 8.76691 215.862 8.77359 215.908 8.78562C216.123 8.84575 216.35 8.88717 216.648 8.85109C216.904 8.86846 217.036 8.97937 217.363 8.94997C217.561 8.9326 217.768 8.92458 217.975 8.9179C218.028 8.91657 218.086 8.94062 218.144 8.95265C218.31 8.98605 218.442 9.0395 218.69 9.01678C218.954 8.99273 219.235 8.98872 219.504 8.97002C219.653 8.95933 219.76 8.96868 219.876 9.00342C220.025 9.04752 220.194 9.08091 220.426 9.05953C220.624 9.04083 220.835 9.03682 221.038 9.02479C221.302 9.01009 221.302 9.01143 221.773 9.09428C221.827 9.10363 221.897 9.11432 221.955 9.11165C222.298 9.09561 222.637 9.07557 222.98 9.05953C223.113 9.05285 223.241 9.07022 223.332 9.10897C223.369 9.12501 223.357 9.15174 223.369 9.17446C222.687 9.21054 222.005 9.24127 221.327 9.28536C221.071 9.30273 220.955 9.24794 220.785 9.21721C220.728 9.20652 220.666 9.18381 220.612 9.18648C220.132 9.2092 219.657 9.23324 219.182 9.26264C219.033 9.27199 218.921 9.26665 218.81 9.2279C218.524 9.12501 218.177 9.18113 217.855 9.19583C217.607 9.20652 217.528 9.24795 217.557 9.33614C217.594 9.44036 217.743 9.47243 218.123 9.45372C218.26 9.44704 218.396 9.43768 218.533 9.43234C218.665 9.42699 218.785 9.44436 218.892 9.48044C218.996 9.51652 219.12 9.53522 219.248 9.52988C219.521 9.51785 219.798 9.50583 220.062 9.48579C220.281 9.46976 220.463 9.48312 220.616 9.53255C220.785 9.58734 220.984 9.57531 221.182 9.56328C221.645 9.53656 221.649 9.5379 221.939 9.60472C221.997 9.61808 222.055 9.64347 222.108 9.64213C222.584 9.62209 223.063 9.60472 223.53 9.57265C223.774 9.55661 223.915 9.59937 224.076 9.63411C224.134 9.64613 224.192 9.67286 224.245 9.67019C224.588 9.65549 224.931 9.64079 225.266 9.6154C225.423 9.60337 225.518 9.61139 225.647 9.64345C225.952 9.72229 225.961 9.71962 226.395 9.69423C226.527 9.68621 226.672 9.67152 226.796 9.68221C226.92 9.6929 227.019 9.73166 227.135 9.75571C227.188 9.7664 227.254 9.78109 227.312 9.77841C227.585 9.76772 227.858 9.7517 228.131 9.737C228.387 9.7223 228.387 9.72364 228.867 9.80648C229.061 9.84122 229.263 9.81182 229.458 9.80113C229.669 9.78911 229.859 9.78911 230.02 9.84123C230.181 9.89334 230.375 9.89065 230.582 9.87996C230.776 9.86928 230.975 9.83989 231.173 9.87597C231.628 9.95881 231.628 9.96014 231.909 9.9441C232.318 9.92138 232.723 9.90001 233.137 9.87996C233.19 9.87729 233.261 9.89333 233.314 9.90402C233.43 9.92808 233.529 9.96815 233.653 9.97751C233.777 9.9882 233.922 9.97216 234.054 9.96415C234.48 9.93876 234.509 9.92941 234.794 10.0176C235.034 10.0898 235.332 9.98553 235.555 10.0684C235.683 10.1151 235.856 10.1526 236.096 10.1298C236.295 10.1111 236.501 10.1058 236.708 10.0951C237.034 10.0777 237.034 10.0791 237.448 10.1592C237.502 10.1699 237.572 10.1833 237.626 10.1806C237.898 10.1699 238.175 10.1606 238.44 10.1365C238.75 10.1085 238.948 10.1592 239.18 10.2087C239.362 10.2474 239.577 10.2154 239.771 10.202C239.982 10.1886 240.172 10.1926 240.329 10.2447C240.494 10.2982 240.689 10.2915 240.895 10.2808C241.09 10.2715 241.288 10.2407 241.486 10.2782C241.912 10.361 241.912 10.361 242.222 10.345C242.495 10.3303 242.768 10.3142 243.041 10.3035C243.094 10.3009 243.16 10.3182 243.214 10.3303C243.33 10.3543 243.429 10.3944 243.553 10.4038C243.677 10.4131 243.822 10.3957 243.958 10.3891C244.095 10.3824 244.239 10.3623 244.363 10.3704C244.487 10.3784 244.603 10.4118 244.702 10.4412C244.818 10.4759 244.925 10.4799 245.083 10.4666C245.281 10.4492 245.488 10.4452 245.69 10.4358C245.802 10.4612 245.917 10.4866 246.025 10.5147C246.137 10.5441 246.256 10.5414 246.409 10.532C246.918 10.5 246.922 10.504 247.348 10.5868C247.542 10.6242 247.745 10.5935 247.939 10.5841C248.146 10.5735 248.34 10.5681 248.501 10.6216C248.658 10.6723 248.852 10.679 249.059 10.663C249.191 10.6523 249.332 10.6456 249.468 10.6416C249.53 10.6403 249.605 10.6456 249.65 10.6563C249.869 10.7124 250.084 10.7632 250.386 10.7271C250.65 10.7378 250.783 10.8474 251.101 10.826C251.37 10.8073 251.651 10.8033 251.915 10.7792C252.159 10.7579 252.333 10.7953 252.457 10.842C252.68 10.9249 252.994 10.8126 253.217 10.8942C253.346 10.9409 253.511 10.9783 253.759 10.9583C254.032 10.9369 254.118 10.965 254.197 11.0491C254.242 11.0972 254.234 11.136 254.152 11.1734C254.069 11.2122 253.978 11.2055 253.846 11.1614C253.693 11.112 253.511 11.1026 253.292 11.1133C253.077 11.124 252.945 11.0545 252.767 11.0278C252.589 10.9997 252.378 11.0465 252.192 11.0104C251.754 10.9262 251.754 10.9262 251.457 10.9423C251.254 10.9529 251.043 10.9583 250.845 10.977C250.609 10.9997 250.456 10.9583 250.295 10.9209C250.237 10.9075 250.179 10.8821 250.13 10.8835C249.654 10.9035 249.175 10.9222 248.704 10.9556C248.455 10.973 248.323 10.9249 248.158 10.8915C248.1 10.8795 248.038 10.8554 247.988 10.8581C247.579 10.8768 247.174 10.9008 246.765 10.9236C246.686 10.9596 246.6 10.9944 246.525 11.0331C246.447 11.0732 246.339 11.0906 246.182 11.0892C245.922 11.0892 245.665 11.1454 245.405 11.0745C245.136 11.0024 245.116 11.0064 244.855 11.0238C244.525 11.0465 244.173 11.0411 243.863 11.0933C243.809 11.1026 243.752 11.128 243.752 11.1467C243.747 11.1587 243.834 11.1761 243.888 11.1868C244.07 11.2188 244.281 11.1721 244.462 11.2055C244.582 11.2269 244.682 11.2589 244.801 11.2816C244.851 11.291 244.925 11.2897 244.992 11.2883C245.062 11.287 245.128 11.2776 245.194 11.279C245.256 11.2803 245.322 11.2883 245.372 11.3004C245.599 11.3511 245.839 11.3979 246.042 11.458C246.24 11.5168 246.426 11.4767 246.624 11.4741C247.418 11.5676 247.418 11.5689 247.951 11.5395C248.084 11.5329 248.22 11.5248 248.356 11.5262C248.414 11.5262 248.468 11.5502 248.526 11.5636C248.691 11.6037 248.848 11.6398 249.08 11.6184C249.278 11.5997 249.489 11.5957 249.691 11.5836C249.964 11.5689 249.964 11.5689 250.427 11.6531C250.543 11.6745 250.667 11.6718 250.816 11.6611C250.944 11.6518 251.076 11.6718 251.167 11.7106C251.204 11.7266 251.192 11.7533 251.204 11.7761C250.795 11.7974 250.382 11.8121 249.985 11.8442C249.729 11.8642 249.613 11.8068 249.443 11.7761C249.386 11.7654 249.324 11.7426 249.27 11.7453C248.865 11.7654 248.46 11.7881 248.055 11.8148C248.005 11.8175 247.943 11.8482 247.939 11.8669C247.931 11.9016 248.034 11.9351 248.183 11.9337C248.381 11.9324 248.575 11.9097 248.753 11.9644C248.902 12.0125 249.088 12.0339 249.307 12.0126C249.439 12.0005 249.58 12.0005 249.712 11.9898C250.064 11.9578 250.382 11.9645 250.646 12.0553C250.849 12.0794 251.047 12.0567 251.242 12.0446C251.386 12.0353 251.527 12.0259 251.63 12.0513C251.849 12.1047 252.064 12.1582 252.366 12.1221C252.692 12.1595 252.94 12.2384 253.213 12.3025C253.341 12.3332 253.441 12.3506 253.589 12.3306C253.651 12.3226 253.726 12.3226 253.792 12.3185C253.928 12.3119 254.073 12.2918 254.197 12.2998C254.321 12.3092 254.424 12.3479 254.536 12.372C254.59 12.384 254.652 12.4041 254.705 12.4027C254.912 12.396 255.115 12.3827 255.317 12.372C255.52 12.3626 255.722 12.3533 255.925 12.3439C256.094 12.3787 256.268 12.4134 256.437 12.4482C256.71 12.4335 256.983 12.4188 257.252 12.4054C257.553 12.3894 257.553 12.3907 257.987 12.4735C258.182 12.511 258.388 12.4869 258.574 12.4695C258.884 12.4415 259.091 12.4923 259.31 12.5457C259.356 12.5564 259.438 12.5631 259.492 12.5577C259.707 12.539 259.893 12.5537 260.05 12.6032C260.162 12.6379 260.273 12.6539 260.41 12.6473C260.885 12.6219 261.36 12.5951 261.836 12.5724C261.894 12.5698 261.96 12.5818 262.014 12.5925C262.435 12.674 262.439 12.678 262.749 12.6566C263.026 12.6379 263.283 12.6299 263.502 12.7034C263.547 12.7194 263.617 12.7421 263.667 12.7408C264.006 12.7274 264.349 12.7127 264.684 12.69C264.837 12.6793 264.944 12.6833 265.064 12.7141C265.217 12.7528 265.354 12.7996 265.606 12.7822C266.304 12.7328 266.308 12.7408 267.135 12.833C267.193 12.8397 267.271 12.829 267.338 12.8236C267.478 12.8103 267.581 12.829 267.705 12.8597C267.982 12.9292 267.991 12.9252 268.255 12.9105C268.458 12.8985 268.669 12.8958 268.867 12.8757C269.173 12.8463 269.375 12.8985 269.603 12.9479C269.785 12.9867 269.995 12.9546 270.19 12.9426C270.401 12.9292 270.591 12.9332 270.748 12.984C270.855 13.0187 270.971 13.0374 271.107 13.0308C271.583 13.0067 272.058 12.98 272.534 12.9559C272.591 12.9532 272.662 12.9639 272.715 12.9733C273.187 13.0561 273.187 13.0601 273.654 13.0294C273.802 13.0201 273.926 13.0174 274.038 13.0454C274.146 13.0722 274.261 13.0976 274.373 13.1229C274.575 13.1136 274.782 13.1109 274.981 13.0949C275.133 13.0829 275.241 13.0882 275.361 13.1163C275.518 13.1523 275.65 13.2151 275.898 13.1844C276.026 13.1697 276.175 13.1737 276.303 13.1604C276.456 13.143 276.56 13.1537 276.679 13.1884C276.828 13.2298 276.981 13.2726 277.221 13.2512C277.485 13.2272 277.767 13.2232 278.035 13.2044C278.184 13.1938 278.287 13.2044 278.407 13.2392C278.556 13.2833 278.726 13.3114 278.957 13.294C279.428 13.2606 279.432 13.2672 279.891 13.3514C280.007 13.3728 280.131 13.3701 280.28 13.3595C280.408 13.3501 280.54 13.3701 280.631 13.4089C280.718 13.4517 280.71 13.4784 280.718 13.5011ZM243.884 1.44984C243.747 1.45652 243.611 1.46454 243.413 1.34829C243.4 1.32825 243.408 1.3042 243.38 1.28683C243.313 1.25075 243.21 1.22537 243.086 1.22136C242.863 1.21601 242.594 1.26143 242.598 1.29618C242.602 1.32557 242.673 1.35096 242.809 1.37501C242.867 1.38436 242.912 1.4004 242.966 1.41109C243.123 1.44182 243.247 1.50196 243.475 1.47123C243.433 1.38838 243.454 1.4298 243.475 1.47123C243.454 1.522 243.516 1.55808 243.665 1.57278C243.706 1.57679 243.768 1.57411 243.801 1.56609C243.929 1.5367 243.95 1.49662 243.855 1.39106C243.838 1.40843 243.851 1.43915 243.888 1.44717C243.925 1.45518 244.016 1.44851 244.062 1.43916C244.177 1.41377 244.235 1.38036 244.206 1.3523C244.19 1.3376 244.111 1.3189 244.062 1.3189C243.975 1.3189 243.896 1.34829 243.884 1.44984ZM277.308 16.9458C277.006 16.9712 276.659 16.9619 276.357 17.014C276.303 17.0233 276.25 17.0474 276.245 17.0661C276.241 17.0781 276.324 17.0955 276.374 17.1048C276.485 17.1262 276.609 17.1195 276.754 17.1129C276.973 17.1035 277.101 17.165 277.271 17.1957C277.324 17.205 277.395 17.2117 277.452 17.2091C277.787 17.193 278.118 17.1757 278.453 17.157C278.511 17.1529 278.573 17.1436 278.622 17.1316C278.788 17.0928 278.771 17.0674 278.61 17.038C278.432 17.006 278.292 16.9525 278.11 16.9271C277.849 16.891 277.585 16.9391 277.308 16.9458ZM253.833 17.9213C253.631 17.932 253.432 17.9426 253.23 17.9533C253.164 17.9573 253.093 17.9587 253.031 17.964C252.903 17.9734 252.808 18.0014 252.746 18.0455C252.841 18.0803 252.957 18.1003 253.085 18.0963C253.288 18.0883 253.486 18.0709 253.689 18.0669C253.908 18.0616 254.036 18.1217 254.205 18.1524C254.259 18.1618 254.325 18.1631 254.387 18.1644C254.693 18.1698 254.879 18.1003 254.821 18.0028C254.78 17.9266 254.623 17.8812 254.433 17.8905C254.234 17.8999 254.032 17.9106 253.833 17.9213ZM278.721 14.9709C278.771 14.9482 278.825 14.9322 278.85 14.9121C278.924 14.844 278.895 14.7932 278.759 14.7397C278.593 14.6743 278.391 14.7184 278.205 14.7251C278.159 14.7264 278.11 14.7544 278.085 14.7718C278.068 14.7838 278.068 14.8092 278.093 14.8159C278.296 14.8694 278.511 14.9188 278.721 14.9709ZM242.863 11.0238C242.664 11.0345 242.462 11.0425 242.263 11.0572C242.214 11.0612 242.168 11.0866 242.139 11.1039C242.086 11.136 242.144 11.1801 242.313 11.1841C242.507 11.1894 242.71 11.1667 242.912 11.156C243.169 11.1427 243.322 11.0932 243.227 11.0505C243.136 11.0091 243.012 11.0011 242.863 11.0238ZM25.2766 8.16829C25.4089 8.16161 25.5453 8.15626 25.6776 8.14691C25.8016 8.13756 25.8967 8.10816 25.9587 8.06407C25.8554 8.02932 25.7396 8.01062 25.6115 8.01463C25.4089 8.02264 25.2105 8.03333 25.0121 8.04669C24.8881 8.05471 24.7683 8.08411 24.7394 8.12954C24.7104 8.16428 24.9873 8.18433 25.2766 8.16829ZM225.382 7.96251C225.436 7.97454 225.489 7.99859 225.543 7.99859C225.675 7.99859 225.812 7.99057 225.936 7.97721C225.99 7.97186 226.031 7.94781 226.056 7.92911C226.072 7.91708 226.068 7.89571 226.043 7.88502C225.924 7.82088 225.444 7.84359 225.365 7.91709C225.357 7.93045 225.378 7.94781 225.382 7.96251ZM212.341 0.645444C212.353 0.666823 212.357 0.6882 212.374 0.709579C212.407 0.749665 212.498 0.779068 212.63 0.799111C212.733 0.765705 212.787 0.728298 212.783 0.688211C212.779 0.666832 212.766 0.645439 212.75 0.62406C212.717 0.583974 212.626 0.554587 212.494 0.534544C212.39 0.566613 212.341 0.604021 212.341 0.645444ZM288.274 18.1538C288.237 18.1711 288.2 18.1885 288.158 18.2045C288.27 18.2433 288.373 18.2553 288.452 18.2339C288.501 18.2206 288.53 18.2005 288.568 18.1832C288.456 18.1444 288.357 18.1337 288.274 18.1538ZM285.703 18.3355C285.757 18.3475 285.806 18.3635 285.864 18.3716C285.959 18.3849 286.046 18.3622 286.112 18.3141C286.058 18.3021 286.009 18.286 285.951 18.278C285.856 18.2647 285.769 18.2874 285.703 18.3355ZM287.332 18.091C287.303 18.123 287.361 18.1498 287.513 18.1725C287.551 18.1551 287.6 18.1391 287.625 18.1204C287.666 18.0896 287.596 18.0616 287.447 18.0402C287.406 18.0562 287.369 18.0736 287.332 18.091ZM278.606 16.6505C278.577 16.6826 278.635 16.7093 278.788 16.732C278.825 16.7147 278.874 16.6986 278.899 16.6799C278.94 16.6492 278.87 16.6211 278.721 16.5998C278.68 16.6158 278.643 16.6332 278.606 16.6505ZM266.718 7.19553C266.68 7.2129 266.643 7.23027 266.602 7.24631C266.713 7.28506 266.817 7.29708 266.895 7.2757C266.945 7.26234 266.974 7.24229 267.011 7.22492C266.899 7.18617 266.8 7.17549 266.718 7.19553ZM255.33 2.17941C255.429 2.18876 255.512 2.17006 255.582 2.12062C255.528 2.1086 255.478 2.09256 255.421 2.08454C255.325 2.07118 255.239 2.0939 255.173 2.142C255.226 2.15537 255.28 2.16738 255.33 2.17941ZM249.282 1.8654C249.245 1.88277 249.208 1.90014 249.167 1.91618C249.278 1.95493 249.381 1.96695 249.46 1.94557C249.51 1.93221 249.539 1.91216 249.576 1.89479C249.464 1.85604 249.365 1.84669 249.282 1.8654ZM208.273 0.644106C208.236 0.661477 208.199 0.678848 208.158 0.694883C208.269 0.733633 208.372 0.745655 208.451 0.724275C208.501 0.710913 208.53 0.690869 208.567 0.673499C208.455 0.634749 208.356 0.625399 208.273 0.644106ZM4.07977 11.5155C4.02603 11.5035 3.97234 11.4914 3.92274 11.4781C3.80287 11.5142 3.76568 11.5476 3.83181 11.5729C3.87315 11.589 3.9351 11.5983 3.98884 11.6104C4.11285 11.5743 4.14177 11.5422 4.07977 11.5155Z" fill="#FFE492"/>
</svg>
